%TF.GenerationSoftware,KiCad,Pcbnew,7.0.10*%
%TF.CreationDate,2024-04-02T19:18:08+05:30*%
%TF.ProjectId,amp,616d702e-6b69-4636-9164-5f7063625858,rev?*%
%TF.SameCoordinates,Original*%
%TF.FileFunction,Copper,L2,Bot*%
%TF.FilePolarity,Positive*%
%FSLAX46Y46*%
G04 Gerber Fmt 4.6, Leading zero omitted, Abs format (unit mm)*
G04 Created by KiCad (PCBNEW 7.0.10) date 2024-04-02 19:18:08*
%MOMM*%
%LPD*%
G01*
G04 APERTURE LIST*
%TA.AperFunction,ComponentPad*%
%ADD10C,1.600000*%
%TD*%
%TA.AperFunction,ComponentPad*%
%ADD11O,1.600000X1.600000*%
%TD*%
%TA.AperFunction,ComponentPad*%
%ADD12R,2.010000X2.010000*%
%TD*%
%TA.AperFunction,ComponentPad*%
%ADD13C,2.010000*%
%TD*%
%TA.AperFunction,ComponentPad*%
%ADD14R,1.700000X1.700000*%
%TD*%
%TA.AperFunction,ComponentPad*%
%ADD15O,1.700000X1.700000*%
%TD*%
%TA.AperFunction,ComponentPad*%
%ADD16R,1.500000X1.500000*%
%TD*%
%TA.AperFunction,ComponentPad*%
%ADD17C,1.500000*%
%TD*%
%TA.AperFunction,ComponentPad*%
%ADD18C,4.000000*%
%TD*%
%TA.AperFunction,ComponentPad*%
%ADD19R,2.430000X2.430000*%
%TD*%
%TA.AperFunction,ComponentPad*%
%ADD20C,2.430000*%
%TD*%
%TA.AperFunction,ComponentPad*%
%ADD21C,1.440000*%
%TD*%
%TA.AperFunction,ComponentPad*%
%ADD22R,2.400000X1.600000*%
%TD*%
%TA.AperFunction,ComponentPad*%
%ADD23O,2.400000X1.600000*%
%TD*%
%TA.AperFunction,ComponentPad*%
%ADD24C,2.400000*%
%TD*%
%TA.AperFunction,ComponentPad*%
%ADD25O,2.400000X2.400000*%
%TD*%
%TA.AperFunction,Conductor*%
%ADD26C,1.000000*%
%TD*%
%TA.AperFunction,Conductor*%
%ADD27C,0.500000*%
%TD*%
G04 APERTURE END LIST*
D10*
%TO.P,RB1,1*%
%TO.N,Net-(RB1-Pad1)*%
X98806000Y-87884000D03*
D11*
%TO.P,RB1,2*%
%TO.N,Net-(Opamp_IC1-OUT)*%
X86106000Y-87884000D03*
%TD*%
D10*
%TO.P,C2,1*%
%TO.N,+15V*%
X73406000Y-59222000D03*
%TO.P,C2,2*%
%TO.N,GND*%
X73406000Y-64222000D03*
%TD*%
D12*
%TO.P,QO1,1,B*%
%TO.N,Net-(QCE1-E)*%
X112800000Y-69700000D03*
D13*
%TO.P,QO1,2,C*%
%TO.N,+15V*%
X115340000Y-69700000D03*
%TO.P,QO1,3,E*%
%TO.N,Net-(QO1-E)*%
X117880000Y-69700000D03*
%TD*%
D14*
%TO.P,Power_input1,1,Pin_1*%
%TO.N,+15V*%
X42164000Y-85344000D03*
D15*
%TO.P,Power_input1,2,Pin_2*%
%TO.N,GND*%
X42164000Y-87884000D03*
%TO.P,Power_input1,3,Pin_3*%
%TO.N,-15V*%
X42164000Y-90424000D03*
%TD*%
D10*
%TO.P,RA1,1*%
%TO.N,/Vout*%
X56642000Y-96774000D03*
D11*
%TO.P,RA1,2*%
%TO.N,Net-(Opamp_IC1-IN+)*%
X56642000Y-84074000D03*
%TD*%
D10*
%TO.P,RCS2,1*%
%TO.N,Net-(QCS1-B)*%
X71374000Y-102362000D03*
D11*
%TO.P,RCS2,2*%
%TO.N,GND*%
X58674000Y-102362000D03*
%TD*%
D10*
%TO.P,REA1,1*%
%TO.N,Net-(QCE1-C)*%
X95758000Y-71882000D03*
D11*
%TO.P,REA1,2*%
%TO.N,+15V*%
X95758000Y-59182000D03*
%TD*%
D10*
%TO.P,ROE1,1*%
%TO.N,/Vout*%
X161174000Y-88392000D03*
D11*
%TO.P,ROE1,2*%
%TO.N,Net-(QO1-E)*%
X148474000Y-88392000D03*
%TD*%
D16*
%TO.P,QCS2,1,E*%
%TO.N,-15V*%
X73406000Y-109474000D03*
D17*
%TO.P,QCS2,2,B*%
%TO.N,Net-(QCS1-E)*%
X75946000Y-109474000D03*
%TO.P,QCS2,3,C*%
%TO.N,Net-(QCS1-B)*%
X78486000Y-109474000D03*
%TD*%
D18*
%TO.P,HS_QO3,1*%
%TO.N,N/C*%
X133000000Y-66100000D03*
X158400000Y-66100000D03*
%TD*%
D10*
%TO.P,C3,1*%
%TO.N,GND*%
X49530000Y-95464000D03*
%TO.P,C3,2*%
%TO.N,-15V*%
X49530000Y-90464000D03*
%TD*%
%TO.P,RA2,1*%
%TO.N,Net-(Opamp_IC1-IN+)*%
X56642000Y-79248000D03*
D11*
%TO.P,RA2,2*%
%TO.N,Net-(Vin1-Pin_1)*%
X56642000Y-66548000D03*
%TD*%
D16*
%TO.P,QCE1,1,E*%
%TO.N,Net-(QCE1-E)*%
X93922000Y-81798000D03*
D17*
%TO.P,QCE1,2,B*%
%TO.N,Net-(QCE1-B)*%
X93922000Y-79258000D03*
%TO.P,QCE1,3,C*%
%TO.N,Net-(QCE1-C)*%
X93922000Y-76718000D03*
%TD*%
D10*
%TO.P,RO2,1*%
%TO.N,Net-(RO2-Pad1)*%
X94488000Y-96266000D03*
D11*
%TO.P,RO2,2*%
%TO.N,Net-(Qb1-B)*%
X107188000Y-96266000D03*
%TD*%
D19*
%TO.P,QO3,1,B*%
%TO.N,Net-(QO1-E)*%
X140200000Y-69700000D03*
D20*
%TO.P,QO3,2,C*%
%TO.N,+15V*%
X145650000Y-69700000D03*
%TO.P,QO3,3,E*%
%TO.N,Net-(QO3-E)*%
X151100000Y-69700000D03*
%TD*%
D21*
%TO.P,RB_pot1,1,1*%
%TO.N,Net-(RB1-Pad1)*%
X106426000Y-87884000D03*
%TO.P,RB_pot1,2,2*%
%TO.N,Net-(QCE1-B)*%
X108966000Y-85344000D03*
%TO.P,RB_pot1,3,3*%
%TO.N,unconnected-(RB_pot1-Pad3)*%
X106426000Y-82804000D03*
%TD*%
D14*
%TO.P,Vin1,1,Pin_1*%
%TO.N,Net-(Vin1-Pin_1)*%
X42164000Y-66543000D03*
D15*
%TO.P,Vin1,2,Pin_2*%
%TO.N,GND*%
X42164000Y-69083000D03*
%TD*%
D22*
%TO.P,Opamp_IC1,1,BAL1*%
%TO.N,unconnected-(Opamp_IC1-BAL1-Pad1)*%
X72390000Y-82804000D03*
D23*
%TO.P,Opamp_IC1,2,IN-*%
%TO.N,Net-(Opamp_IC1-IN-)*%
X72390000Y-85344000D03*
%TO.P,Opamp_IC1,3,IN+*%
%TO.N,Net-(Opamp_IC1-IN+)*%
X72390000Y-87884000D03*
%TO.P,Opamp_IC1,4,VCC-*%
%TO.N,-15V*%
X72390000Y-90424000D03*
%TO.P,Opamp_IC1,5,BAL2*%
%TO.N,unconnected-(Opamp_IC1-BAL2-Pad5)*%
X80010000Y-90424000D03*
%TO.P,Opamp_IC1,6,OUT*%
%TO.N,Net-(Opamp_IC1-OUT)*%
X80010000Y-87884000D03*
%TO.P,Opamp_IC1,7,VCC+*%
%TO.N,+15V*%
X80010000Y-85344000D03*
%TO.P,Opamp_IC1,8,NC*%
%TO.N,unconnected-(Opamp_IC1-NC-Pad8)*%
X80010000Y-82804000D03*
%TD*%
D16*
%TO.P,Qb1,1,E*%
%TO.N,Net-(QCS1-C)*%
X83820000Y-109728000D03*
D17*
%TO.P,Qb1,2,B*%
%TO.N,Net-(Qb1-B)*%
X86360000Y-109728000D03*
%TO.P,Qb1,3,C*%
%TO.N,Net-(QCE1-E)*%
X88900000Y-109728000D03*
%TD*%
D10*
%TO.P,RCSB1,1*%
%TO.N,Net-(RCSB1-Pad1)*%
X49276000Y-122174000D03*
D11*
%TO.P,RCSB1,2*%
%TO.N,Net-(RCSA1-Pad1)*%
X61976000Y-122174000D03*
%TD*%
D24*
%TO.P,ROE3,1*%
%TO.N,/Vout*%
X117221000Y-96012000D03*
D25*
%TO.P,ROE3,2*%
%TO.N,Net-(QO3-E)*%
X157861000Y-96012000D03*
%TD*%
D10*
%TO.P,REB1,1*%
%TO.N,Net-(QCE1-C)*%
X103124000Y-71882000D03*
D11*
%TO.P,REB1,2*%
%TO.N,+15V*%
X103124000Y-59182000D03*
%TD*%
D10*
%TO.P,RF1,1*%
%TO.N,Net-(QCE1-E)*%
X126238000Y-85344000D03*
D11*
%TO.P,RF1,2*%
%TO.N,Net-(QCE1-B)*%
X113538000Y-85344000D03*
%TD*%
D16*
%TO.P,QCS1,1,E*%
%TO.N,Net-(QCS1-E)*%
X75946000Y-119634000D03*
D17*
%TO.P,QCS1,2,B*%
%TO.N,Net-(QCS1-B)*%
X78486000Y-119634000D03*
%TO.P,QCS1,3,C*%
%TO.N,Net-(QCS1-C)*%
X81026000Y-119634000D03*
%TD*%
D12*
%TO.P,QO2,1,B*%
%TO.N,Net-(QCS1-C)*%
X75946000Y-128524000D03*
D13*
%TO.P,QO2,2,C*%
%TO.N,-15V*%
X73406000Y-128524000D03*
%TO.P,QO2,3,E*%
%TO.N,Net-(QO2-E)*%
X70866000Y-128524000D03*
%TD*%
D19*
%TO.P,QO4,1,B*%
%TO.N,Net-(QO2-E)*%
X111760000Y-129794000D03*
D20*
%TO.P,QO4,2,C*%
%TO.N,-15V*%
X106310000Y-129794000D03*
%TO.P,QO4,3,E*%
%TO.N,Net-(QO4-E)*%
X100860000Y-129794000D03*
%TD*%
D14*
%TO.P,Vout1,1,Pin_1*%
%TO.N,/Vout*%
X157734000Y-123444000D03*
D15*
%TO.P,Vout1,2,Pin_2*%
%TO.N,GND*%
X157734000Y-125984000D03*
%TD*%
D10*
%TO.P,RA3,1*%
%TO.N,Net-(Opamp_IC1-IN-)*%
X65024000Y-81534000D03*
D11*
%TO.P,RA3,2*%
%TO.N,GND*%
X65024000Y-68834000D03*
%TD*%
D10*
%TO.P,RO1,1*%
%TO.N,Net-(Qb1-B)*%
X94488000Y-103378000D03*
D11*
%TO.P,RO1,2*%
%TO.N,Net-(QCE1-E)*%
X107188000Y-103378000D03*
%TD*%
D24*
%TO.P,ROE4,1*%
%TO.N,Net-(QO4-E)*%
X117094000Y-109474000D03*
D25*
%TO.P,ROE4,2*%
%TO.N,/Vout*%
X157734000Y-109474000D03*
%TD*%
D10*
%TO.P,C1,1*%
%TO.N,Net-(Opamp_IC1-IN-)*%
X73426000Y-75438000D03*
%TO.P,C1,2*%
%TO.N,Net-(Opamp_IC1-OUT)*%
X75926000Y-75438000D03*
%TD*%
D21*
%TO.P,RO_pot2,1,1*%
%TO.N,Net-(RO2-Pad1)*%
X86360000Y-96266000D03*
%TO.P,RO_pot2,2,2*%
%TO.N,Net-(QCS1-C)*%
X83820000Y-98806000D03*
%TO.P,RO_pot2,3,3*%
%TO.N,unconnected-(RO_pot2-Pad3)*%
X86360000Y-101346000D03*
%TD*%
D10*
%TO.P,R1,1*%
%TO.N,Net-(QCE1-B)*%
X88900000Y-71882000D03*
D11*
%TO.P,R1,2*%
%TO.N,+15V*%
X88900000Y-59182000D03*
%TD*%
D10*
%TO.P,RCSC1,1*%
%TO.N,Net-(RCSB1-Pad1)*%
X49276000Y-113284000D03*
D11*
%TO.P,RCSC1,2*%
%TO.N,-15V*%
X61976000Y-113284000D03*
%TD*%
D10*
%TO.P,RCSA1,1*%
%TO.N,Net-(RCSA1-Pad1)*%
X67564000Y-122174000D03*
D11*
%TO.P,RCSA1,2*%
%TO.N,Net-(QCS1-E)*%
X67564000Y-109474000D03*
%TD*%
D10*
%TO.P,ROE2,1*%
%TO.N,Net-(QO2-E)*%
X124968000Y-118364000D03*
D11*
%TO.P,ROE2,2*%
%TO.N,/Vout*%
X137668000Y-118364000D03*
%TD*%
D18*
%TO.P,HS_QO4,1*%
%TO.N,N/C*%
X93588000Y-133604000D03*
X118988000Y-133604000D03*
%TD*%
D26*
%TO.N,GND*%
X42164000Y-69083000D02*
X39624000Y-71623000D01*
X39624000Y-71623000D02*
X39624000Y-86546081D01*
X40961919Y-87884000D02*
X42164000Y-87884000D01*
X39624000Y-86546081D02*
X40961919Y-87884000D01*
D27*
%TO.N,Net-(Opamp_IC1-OUT)*%
X75926000Y-84200000D02*
X79610000Y-87884000D01*
X80010000Y-87884000D02*
X86106000Y-87884000D01*
X75926000Y-75438000D02*
X75926000Y-84200000D01*
%TO.N,Net-(Opamp_IC1-IN+)*%
X56642000Y-79248000D02*
X56642000Y-84074000D01*
X72390000Y-87884000D02*
X60452000Y-87884000D01*
X60452000Y-87884000D02*
X56642000Y-84074000D01*
D26*
%TO.N,-15V*%
X61087000Y-94869000D02*
X62865000Y-94869000D01*
X61976000Y-113284000D02*
X61976000Y-115316000D01*
X70612000Y-117856000D02*
X73406000Y-120650000D01*
X73406000Y-109474000D02*
X73406000Y-113538000D01*
X73406000Y-128524000D02*
X73406000Y-132080000D01*
X56682000Y-90464000D02*
X61087000Y-94869000D01*
X73406000Y-113538000D02*
X70612000Y-116332000D01*
X67310000Y-90424000D02*
X72390000Y-90424000D01*
X70612000Y-116332000D02*
X70612000Y-117856000D01*
X61087000Y-94869000D02*
X61976000Y-95758000D01*
X49530000Y-90464000D02*
X56682000Y-90464000D01*
X61976000Y-115316000D02*
X63754000Y-117094000D01*
X106288000Y-133488000D02*
X106288000Y-129816000D01*
X70612000Y-116332000D02*
X69850000Y-117094000D01*
X62865000Y-94869000D02*
X67310000Y-90424000D01*
X73406000Y-120650000D02*
X73406000Y-128524000D01*
X73406000Y-132080000D02*
X79126000Y-137800000D01*
X79126000Y-137800000D02*
X101976000Y-137800000D01*
X106288000Y-129816000D02*
X106310000Y-129794000D01*
X101976000Y-137800000D02*
X106288000Y-133488000D01*
X61976000Y-95758000D02*
X62865000Y-94869000D01*
X63754000Y-117094000D02*
X69850000Y-117094000D01*
X61976000Y-95758000D02*
X61976000Y-113284000D01*
X69850000Y-117094000D02*
X70612000Y-117856000D01*
X42164000Y-90424000D02*
X49490000Y-90424000D01*
D27*
X73406000Y-128524000D02*
X73406000Y-129494000D01*
D26*
X49490000Y-90424000D02*
X49530000Y-90464000D01*
%TO.N,+15V*%
X116390000Y-62890000D02*
X119380000Y-59900000D01*
X83058000Y-64008000D02*
X82677000Y-63627000D01*
X115340000Y-63940000D02*
X114300000Y-62900000D01*
X114300000Y-62900000D02*
X110582000Y-59182000D01*
X145600000Y-69700000D02*
X145650000Y-69700000D01*
X82210000Y-85344000D02*
X80010000Y-85344000D01*
X84074000Y-64008000D02*
X83566000Y-64516000D01*
X88900000Y-59182000D02*
X95758000Y-59182000D01*
X82677000Y-63627000D02*
X84455000Y-63627000D01*
X95758000Y-59182000D02*
X103124000Y-59182000D01*
X116390000Y-62890000D02*
X114310000Y-62890000D01*
X83566000Y-83988000D02*
X82210000Y-85344000D01*
X119380000Y-59900000D02*
X135800000Y-59900000D01*
X82677000Y-63627000D02*
X78272000Y-59222000D01*
X83566000Y-64516000D02*
X83566000Y-83988000D01*
X83566000Y-64516000D02*
X83058000Y-64008000D01*
X42418000Y-85344000D02*
X42164000Y-85344000D01*
X115340000Y-69700000D02*
X115340000Y-63940000D01*
X78272000Y-59222000D02*
X73406000Y-59222000D01*
X110582000Y-59182000D02*
X103124000Y-59182000D01*
X115340000Y-63940000D02*
X116390000Y-62890000D01*
X114310000Y-62890000D02*
X114300000Y-62900000D01*
X84455000Y-63627000D02*
X84074000Y-64008000D01*
X73406000Y-59222000D02*
X68540000Y-59222000D01*
X88900000Y-59182000D02*
X84455000Y-63627000D01*
X135800000Y-59900000D02*
X145600000Y-69700000D01*
X68540000Y-59222000D02*
X42418000Y-85344000D01*
D27*
%TO.N,Net-(QCS1-C)*%
X83820000Y-109728000D02*
X83820000Y-116840000D01*
X83820000Y-98806000D02*
X83820000Y-109728000D01*
X83820000Y-116840000D02*
X81026000Y-119634000D01*
X75946000Y-128524000D02*
X75946000Y-124714000D01*
X75946000Y-124714000D02*
X81026000Y-119634000D01*
%TO.N,Net-(Qb1-B)*%
X94488000Y-103378000D02*
X91186000Y-103378000D01*
X86360000Y-109728000D02*
X86360000Y-108204000D01*
X107188000Y-96266000D02*
X104140000Y-96266000D01*
X97028000Y-103378000D02*
X94488000Y-103378000D01*
X104140000Y-96266000D02*
X97028000Y-103378000D01*
X91186000Y-103378000D02*
X86360000Y-108204000D01*
%TO.N,Net-(QCE1-E)*%
X93922000Y-87826000D02*
X93922000Y-81798000D01*
X101092000Y-103378000D02*
X107188000Y-103378000D01*
X109220000Y-103378000D02*
X110236000Y-102362000D01*
X110744000Y-92456000D02*
X110236000Y-92964000D01*
X112800000Y-77748000D02*
X112800000Y-69700000D01*
X97282000Y-91186000D02*
X93922000Y-87826000D01*
X109728000Y-92456000D02*
X110744000Y-92456000D01*
X116586000Y-81534000D02*
X112800000Y-77748000D01*
X114427000Y-88773000D02*
X110744000Y-92456000D01*
X107188000Y-103378000D02*
X109220000Y-103378000D01*
X109728000Y-92456000D02*
X108458000Y-91186000D01*
X92710000Y-105918000D02*
X98552000Y-105918000D01*
X108458000Y-91186000D02*
X97282000Y-91186000D01*
X110236000Y-92964000D02*
X109728000Y-92456000D01*
X126238000Y-83312000D02*
X124460000Y-81534000D01*
X88900000Y-109728000D02*
X92710000Y-105918000D01*
X98552000Y-105918000D02*
X101092000Y-103378000D01*
X124460000Y-81534000D02*
X116586000Y-81534000D01*
X126238000Y-85344000D02*
X122809000Y-88773000D01*
X110236000Y-102362000D02*
X110236000Y-92964000D01*
X122809000Y-88773000D02*
X114427000Y-88773000D01*
X126238000Y-85344000D02*
X126238000Y-83312000D01*
%TO.N,Net-(QCE1-B)*%
X90434000Y-79258000D02*
X93922000Y-79258000D01*
X108966000Y-85344000D02*
X113538000Y-85344000D01*
X97546000Y-79258000D02*
X103632000Y-85344000D01*
X103632000Y-85344000D02*
X108966000Y-85344000D01*
X93922000Y-79258000D02*
X97546000Y-79258000D01*
X88900000Y-71882000D02*
X88900000Y-77724000D01*
X88900000Y-77724000D02*
X90434000Y-79258000D01*
%TO.N,Net-(QCE1-C)*%
X93922000Y-76718000D02*
X93922000Y-73718000D01*
X95758000Y-71882000D02*
X103124000Y-71882000D01*
X93922000Y-73718000D02*
X95758000Y-71882000D01*
%TO.N,Net-(QCS1-E)*%
X67564000Y-107442000D02*
X67564000Y-109474000D01*
X68580000Y-106426000D02*
X67564000Y-107442000D01*
X75946000Y-109474000D02*
X75946000Y-107696000D01*
X74676000Y-106426000D02*
X68580000Y-106426000D01*
X75946000Y-107696000D02*
X74676000Y-106426000D01*
X75946000Y-119634000D02*
X75946000Y-109474000D01*
%TO.N,Net-(QCS1-B)*%
X78486000Y-105410000D02*
X78486000Y-109474000D01*
X75438000Y-102362000D02*
X78486000Y-105410000D01*
X78486000Y-119634000D02*
X78486000Y-109474000D01*
X75438000Y-102362000D02*
X71374000Y-102362000D01*
%TO.N,Net-(QO1-E)*%
X140200000Y-70000000D02*
X148474000Y-78274000D01*
X140200000Y-69700000D02*
X140200000Y-70000000D01*
X148474000Y-78274000D02*
X148474000Y-88392000D01*
X117880000Y-69700000D02*
X140200000Y-69700000D01*
%TO.N,Net-(QO2-E)*%
X111738000Y-129816000D02*
X111760000Y-129794000D01*
X111738000Y-134134000D02*
X111738000Y-129816000D01*
X124951000Y-118381000D02*
X124968000Y-118364000D01*
X70866000Y-134366000D02*
X77000000Y-140500000D01*
X70866000Y-128524000D02*
X70866000Y-134366000D01*
X77000000Y-140500000D02*
X105372000Y-140500000D01*
X105372000Y-140500000D02*
X111738000Y-134134000D01*
X111760000Y-129794000D02*
X111760000Y-121920000D01*
X115299000Y-118381000D02*
X124951000Y-118381000D01*
X111760000Y-121920000D02*
X115299000Y-118381000D01*
D26*
%TO.N,Net-(QO3-E)*%
X151100000Y-69700000D02*
X151100000Y-89400000D01*
X157712000Y-96012000D02*
X157861000Y-96012000D01*
X151100000Y-89400000D02*
X157712000Y-96012000D01*
%TO.N,Net-(QO4-E)*%
X106426000Y-109474000D02*
X100838000Y-115062000D01*
X100838000Y-129772000D02*
X100860000Y-129794000D01*
X117094000Y-109474000D02*
X106426000Y-109474000D01*
X100838000Y-115062000D02*
X100838000Y-129772000D01*
%TO.N,/Vout*%
X138684000Y-117348000D02*
X137668000Y-118364000D01*
D27*
X136652000Y-117348000D02*
X138684000Y-117348000D01*
D26*
X157734000Y-109474000D02*
X146558000Y-109474000D01*
X146558000Y-109474000D02*
X138684000Y-117348000D01*
D27*
X56642000Y-125984000D02*
X56642000Y-96774000D01*
X137668000Y-118364000D02*
X137668000Y-121158000D01*
D26*
X117221000Y-96012000D02*
X117221000Y-97917000D01*
X157734000Y-109474000D02*
X157734000Y-123444000D01*
D27*
X161174000Y-106034000D02*
X157734000Y-109474000D01*
X161174000Y-88392000D02*
X161174000Y-106034000D01*
X73658000Y-143000000D02*
X56642000Y-125984000D01*
D26*
X117221000Y-97917000D02*
X136652000Y-117348000D01*
X136652000Y-117348000D02*
X137668000Y-118364000D01*
D27*
X115826000Y-143000000D02*
X73658000Y-143000000D01*
X137668000Y-121158000D02*
X115826000Y-143000000D01*
%TO.N,Net-(Vin1-Pin_1)*%
X42164000Y-66543000D02*
X56637000Y-66543000D01*
X56637000Y-66543000D02*
X56642000Y-66548000D01*
%TO.N,Net-(RB1-Pad1)*%
X106426000Y-87884000D02*
X98806000Y-87884000D01*
%TO.N,Net-(RO2-Pad1)*%
X86360000Y-96266000D02*
X94488000Y-96266000D01*
%TO.N,Net-(Opamp_IC1-IN-)*%
X72390000Y-85344000D02*
X68834000Y-85344000D01*
X68834000Y-85344000D02*
X65024000Y-81534000D01*
X73426000Y-75438000D02*
X68072000Y-75438000D01*
X65024000Y-78486000D02*
X65024000Y-81534000D01*
X68072000Y-75438000D02*
X65024000Y-78486000D01*
%TO.N,Net-(RCSA1-Pad1)*%
X61976000Y-122174000D02*
X67564000Y-122174000D01*
%TO.N,Net-(RCSB1-Pad1)*%
X49276000Y-122174000D02*
X49276000Y-113284000D01*
%TD*%
%TA.AperFunction,Conductor*%
%TO.N,GND*%
G36*
X72595451Y-60242185D02*
G01*
X72599523Y-60244917D01*
X72753266Y-60352568D01*
X72959504Y-60448739D01*
X73179308Y-60507635D01*
X73341230Y-60521801D01*
X73405998Y-60527468D01*
X73406000Y-60527468D01*
X73406002Y-60527468D01*
X73462673Y-60522509D01*
X73632692Y-60507635D01*
X73852496Y-60448739D01*
X74058734Y-60352568D01*
X74212465Y-60244924D01*
X74278671Y-60222598D01*
X74283588Y-60222500D01*
X77806217Y-60222500D01*
X77873256Y-60242185D01*
X77893898Y-60258819D01*
X81959450Y-64324371D01*
X81961643Y-64326620D01*
X82021941Y-64390053D01*
X82023387Y-64391059D01*
X82040234Y-64405155D01*
X82529181Y-64894102D01*
X82562666Y-64955425D01*
X82565500Y-64981783D01*
X82565500Y-83522218D01*
X82545815Y-83589257D01*
X82529181Y-83609899D01*
X81831899Y-84307181D01*
X81770576Y-84340666D01*
X81744218Y-84343500D01*
X81287588Y-84343500D01*
X81220549Y-84323815D01*
X81216465Y-84321075D01*
X81213373Y-84318910D01*
X81062734Y-84213432D01*
X81004724Y-84186381D01*
X80952285Y-84140210D01*
X80933133Y-84073017D01*
X80953348Y-84006135D01*
X81004725Y-83961618D01*
X81062734Y-83934568D01*
X81249139Y-83804047D01*
X81410047Y-83643139D01*
X81540568Y-83456734D01*
X81636739Y-83250496D01*
X81695635Y-83030692D01*
X81712709Y-82835533D01*
X81715468Y-82804001D01*
X81715468Y-82803998D01*
X81696855Y-82591253D01*
X81695635Y-82577308D01*
X81644100Y-82384977D01*
X81636741Y-82357511D01*
X81636738Y-82357502D01*
X81603087Y-82285338D01*
X81540568Y-82151266D01*
X81410047Y-81964861D01*
X81410045Y-81964858D01*
X81249141Y-81803954D01*
X81062734Y-81673432D01*
X81062732Y-81673431D01*
X80856497Y-81577261D01*
X80856488Y-81577258D01*
X80636697Y-81518366D01*
X80636687Y-81518364D01*
X80466785Y-81503500D01*
X80466784Y-81503500D01*
X79553216Y-81503500D01*
X79553215Y-81503500D01*
X79383312Y-81518364D01*
X79383302Y-81518366D01*
X79163511Y-81577258D01*
X79163502Y-81577261D01*
X78957267Y-81673431D01*
X78957265Y-81673432D01*
X78770858Y-81803954D01*
X78609954Y-81964858D01*
X78479432Y-82151265D01*
X78479431Y-82151267D01*
X78383261Y-82357502D01*
X78383258Y-82357511D01*
X78324366Y-82577302D01*
X78324364Y-82577313D01*
X78304532Y-82803998D01*
X78304532Y-82804001D01*
X78324364Y-83030686D01*
X78324366Y-83030697D01*
X78383258Y-83250488D01*
X78383261Y-83250497D01*
X78479431Y-83456732D01*
X78479432Y-83456734D01*
X78609954Y-83643141D01*
X78770858Y-83804045D01*
X78770861Y-83804047D01*
X78957266Y-83934568D01*
X79015275Y-83961618D01*
X79067714Y-84007791D01*
X79086866Y-84074984D01*
X79066650Y-84141865D01*
X79015275Y-84186382D01*
X78957267Y-84213431D01*
X78957265Y-84213432D01*
X78770858Y-84343954D01*
X78609954Y-84504858D01*
X78479432Y-84691265D01*
X78479431Y-84691267D01*
X78383261Y-84897502D01*
X78383258Y-84897511D01*
X78324366Y-85117302D01*
X78324364Y-85117312D01*
X78313777Y-85238327D01*
X78288324Y-85303395D01*
X78231733Y-85344374D01*
X78161971Y-85348252D01*
X78102568Y-85315200D01*
X76712819Y-83925451D01*
X76679334Y-83864128D01*
X76676500Y-83837770D01*
X76676500Y-76564662D01*
X76696185Y-76497623D01*
X76729379Y-76463086D01*
X76765140Y-76438046D01*
X76926045Y-76277141D01*
X76926047Y-76277139D01*
X77056568Y-76090734D01*
X77152739Y-75884496D01*
X77211635Y-75664692D01*
X77231468Y-75438000D01*
X77211635Y-75211308D01*
X77152739Y-74991504D01*
X77056568Y-74785266D01*
X76926047Y-74598861D01*
X76926045Y-74598858D01*
X76765141Y-74437954D01*
X76578734Y-74307432D01*
X76578732Y-74307431D01*
X76372497Y-74211261D01*
X76372488Y-74211258D01*
X76152697Y-74152366D01*
X76152693Y-74152365D01*
X76152692Y-74152365D01*
X76152691Y-74152364D01*
X76152686Y-74152364D01*
X75926002Y-74132532D01*
X75925998Y-74132532D01*
X75699313Y-74152364D01*
X75699302Y-74152366D01*
X75479511Y-74211258D01*
X75479502Y-74211261D01*
X75273267Y-74307431D01*
X75273265Y-74307432D01*
X75086858Y-74437954D01*
X74925954Y-74598858D01*
X74795433Y-74785264D01*
X74795432Y-74785266D01*
X74788380Y-74800387D01*
X74742209Y-74852825D01*
X74675015Y-74871976D01*
X74608134Y-74851760D01*
X74563619Y-74800387D01*
X74556568Y-74785266D01*
X74426047Y-74598861D01*
X74426045Y-74598858D01*
X74265141Y-74437954D01*
X74078734Y-74307432D01*
X74078732Y-74307431D01*
X73872497Y-74211261D01*
X73872488Y-74211258D01*
X73652697Y-74152366D01*
X73652693Y-74152365D01*
X73652692Y-74152365D01*
X73652691Y-74152364D01*
X73652686Y-74152364D01*
X73426002Y-74132532D01*
X73425998Y-74132532D01*
X73199313Y-74152364D01*
X73199302Y-74152366D01*
X72979511Y-74211258D01*
X72979502Y-74211261D01*
X72773267Y-74307431D01*
X72773265Y-74307432D01*
X72586858Y-74437954D01*
X72425954Y-74598858D01*
X72400912Y-74634623D01*
X72346335Y-74678248D01*
X72299337Y-74687500D01*
X68135705Y-74687500D01*
X68117735Y-74686191D01*
X68093972Y-74682710D01*
X68046843Y-74686834D01*
X68044630Y-74687028D01*
X68033824Y-74687500D01*
X68028284Y-74687500D01*
X67997501Y-74691098D01*
X67993916Y-74691464D01*
X67919199Y-74698001D01*
X67912132Y-74699460D01*
X67912120Y-74699404D01*
X67904763Y-74701035D01*
X67904777Y-74701092D01*
X67897740Y-74702760D01*
X67827231Y-74728421D01*
X67823854Y-74729595D01*
X67784848Y-74742521D01*
X67752668Y-74753185D01*
X67746126Y-74756236D01*
X67746101Y-74756183D01*
X67739308Y-74759471D01*
X67739334Y-74759523D01*
X67732880Y-74762764D01*
X67670221Y-74803975D01*
X67667181Y-74805912D01*
X67603348Y-74845285D01*
X67597683Y-74849765D01*
X67597647Y-74849719D01*
X67591798Y-74854484D01*
X67591835Y-74854528D01*
X67586310Y-74859164D01*
X67534832Y-74913726D01*
X67532320Y-74916311D01*
X64538358Y-77910272D01*
X64524729Y-77922051D01*
X64505469Y-77936390D01*
X64473632Y-77974331D01*
X64466346Y-77982284D01*
X64462407Y-77986224D01*
X64443176Y-78010545D01*
X64440902Y-78013337D01*
X64392694Y-78070790D01*
X64388729Y-78076819D01*
X64388682Y-78076788D01*
X64384630Y-78083147D01*
X64384679Y-78083177D01*
X64380889Y-78089321D01*
X64349192Y-78157294D01*
X64347623Y-78160536D01*
X64313957Y-78227572D01*
X64311488Y-78234357D01*
X64311432Y-78234336D01*
X64308960Y-78241450D01*
X64309015Y-78241469D01*
X64306743Y-78248325D01*
X64291573Y-78321788D01*
X64290793Y-78325304D01*
X64273499Y-78398279D01*
X64272661Y-78405454D01*
X64272601Y-78405447D01*
X64271835Y-78412945D01*
X64271895Y-78412951D01*
X64271265Y-78420140D01*
X64273448Y-78495128D01*
X64273500Y-78498735D01*
X64273500Y-80407336D01*
X64253815Y-80474375D01*
X64220625Y-80508910D01*
X64184863Y-80533951D01*
X64023951Y-80694862D01*
X63893432Y-80881265D01*
X63893431Y-80881267D01*
X63797261Y-81087502D01*
X63797258Y-81087511D01*
X63738366Y-81307302D01*
X63738364Y-81307313D01*
X63718532Y-81533998D01*
X63718532Y-81534001D01*
X63738364Y-81760686D01*
X63738366Y-81760697D01*
X63797258Y-81980488D01*
X63797261Y-81980497D01*
X63893431Y-82186732D01*
X63893432Y-82186734D01*
X64023954Y-82373141D01*
X64184858Y-82534045D01*
X64184861Y-82534047D01*
X64371266Y-82664568D01*
X64577504Y-82760739D01*
X64797308Y-82819635D01*
X64936789Y-82831838D01*
X65023998Y-82839468D01*
X65024000Y-82839468D01*
X65024001Y-82839468D01*
X65044848Y-82837644D01*
X65190861Y-82824869D01*
X65259359Y-82838635D01*
X65289348Y-82860716D01*
X68258267Y-85829634D01*
X68270048Y-85843266D01*
X68284389Y-85862529D01*
X68284390Y-85862530D01*
X68322338Y-85894372D01*
X68330319Y-85901686D01*
X68334220Y-85905588D01*
X68358543Y-85924820D01*
X68361304Y-85927069D01*
X68398302Y-85958114D01*
X68418789Y-85975305D01*
X68424818Y-85979270D01*
X68424785Y-85979319D01*
X68431143Y-85983369D01*
X68431175Y-85983319D01*
X68437317Y-85987107D01*
X68437319Y-85987108D01*
X68437323Y-85987111D01*
X68492448Y-86012816D01*
X68505315Y-86018816D01*
X68508560Y-86020388D01*
X68541371Y-86036866D01*
X68575567Y-86054040D01*
X68575569Y-86054040D01*
X68582361Y-86056513D01*
X68582340Y-86056570D01*
X68589455Y-86059043D01*
X68589475Y-86058986D01*
X68596323Y-86061254D01*
X68596328Y-86061257D01*
X68669852Y-86076437D01*
X68673286Y-86077199D01*
X68718563Y-86087931D01*
X68746274Y-86094499D01*
X68746275Y-86094499D01*
X68746279Y-86094500D01*
X68746283Y-86094500D01*
X68753452Y-86095338D01*
X68753444Y-86095397D01*
X68760945Y-86096164D01*
X68760951Y-86096105D01*
X68768140Y-86096734D01*
X68768144Y-86096733D01*
X68768145Y-86096734D01*
X68843131Y-86094552D01*
X68846738Y-86094500D01*
X70863337Y-86094500D01*
X70930376Y-86114185D01*
X70964912Y-86147377D01*
X70989954Y-86183141D01*
X71150858Y-86344045D01*
X71150861Y-86344047D01*
X71337266Y-86474568D01*
X71395275Y-86501618D01*
X71447714Y-86547791D01*
X71466866Y-86614984D01*
X71446650Y-86681865D01*
X71395275Y-86726382D01*
X71337267Y-86753431D01*
X71337265Y-86753432D01*
X71150858Y-86883954D01*
X70989954Y-87044858D01*
X70964912Y-87080623D01*
X70910335Y-87124248D01*
X70863337Y-87133500D01*
X60814229Y-87133500D01*
X60747190Y-87113815D01*
X60726548Y-87097181D01*
X57968716Y-84339348D01*
X57935231Y-84278025D01*
X57932869Y-84240863D01*
X57947468Y-84074000D01*
X57945175Y-84047796D01*
X57937636Y-83961618D01*
X57927635Y-83847308D01*
X57868739Y-83627504D01*
X57772568Y-83421266D01*
X57665452Y-83268287D01*
X57642048Y-83234862D01*
X57566387Y-83159201D01*
X57481139Y-83073953D01*
X57473220Y-83068408D01*
X57445375Y-83048910D01*
X57401751Y-82994332D01*
X57392500Y-82947336D01*
X57392500Y-80374662D01*
X57412185Y-80307623D01*
X57445379Y-80273086D01*
X57481140Y-80248046D01*
X57642045Y-80087141D01*
X57642047Y-80087139D01*
X57772568Y-79900734D01*
X57868739Y-79694496D01*
X57927635Y-79474692D01*
X57947468Y-79248000D01*
X57927635Y-79021308D01*
X57868739Y-78801504D01*
X57772568Y-78595266D01*
X57642047Y-78408861D01*
X57642045Y-78408858D01*
X57481141Y-78247954D01*
X57294734Y-78117432D01*
X57294732Y-78117431D01*
X57088497Y-78021261D01*
X57088488Y-78021258D01*
X56868697Y-77962366D01*
X56868693Y-77962365D01*
X56868692Y-77962365D01*
X56868691Y-77962364D01*
X56868686Y-77962364D01*
X56642002Y-77942532D01*
X56641998Y-77942532D01*
X56415313Y-77962364D01*
X56415302Y-77962366D01*
X56195511Y-78021258D01*
X56195502Y-78021261D01*
X55989267Y-78117431D01*
X55989265Y-78117432D01*
X55802858Y-78247954D01*
X55641954Y-78408858D01*
X55511432Y-78595265D01*
X55511431Y-78595267D01*
X55415261Y-78801502D01*
X55415258Y-78801511D01*
X55356366Y-79021302D01*
X55356364Y-79021313D01*
X55336532Y-79247998D01*
X55336532Y-79248001D01*
X55356364Y-79474686D01*
X55356366Y-79474697D01*
X55415258Y-79694488D01*
X55415261Y-79694497D01*
X55511431Y-79900732D01*
X55511432Y-79900734D01*
X55641954Y-80087141D01*
X55802859Y-80248046D01*
X55838621Y-80273086D01*
X55882247Y-80327662D01*
X55891500Y-80374662D01*
X55891500Y-82947336D01*
X55871815Y-83014375D01*
X55838625Y-83048910D01*
X55802863Y-83073951D01*
X55641951Y-83234862D01*
X55555916Y-83357735D01*
X55514713Y-83416581D01*
X55511435Y-83421262D01*
X55511431Y-83421267D01*
X55415261Y-83627502D01*
X55415258Y-83627511D01*
X55356366Y-83847302D01*
X55356364Y-83847313D01*
X55336532Y-84073998D01*
X55336532Y-84074001D01*
X55356364Y-84300686D01*
X55356366Y-84300697D01*
X55415258Y-84520488D01*
X55415261Y-84520497D01*
X55511431Y-84726732D01*
X55511432Y-84726734D01*
X55641954Y-84913141D01*
X55802858Y-85074045D01*
X55802861Y-85074047D01*
X55989266Y-85204568D01*
X56195504Y-85300739D01*
X56415308Y-85359635D01*
X56577230Y-85373801D01*
X56641998Y-85379468D01*
X56642000Y-85379468D01*
X56642001Y-85379468D01*
X56662062Y-85377712D01*
X56808861Y-85364869D01*
X56877359Y-85378635D01*
X56907348Y-85400716D01*
X59876267Y-88369634D01*
X59888048Y-88383266D01*
X59894551Y-88392001D01*
X59902390Y-88402530D01*
X59940343Y-88434376D01*
X59948319Y-88441686D01*
X59952220Y-88445588D01*
X59976543Y-88464820D01*
X59979304Y-88467069D01*
X60014472Y-88496578D01*
X60036789Y-88515305D01*
X60042818Y-88519270D01*
X60042785Y-88519319D01*
X60049143Y-88523369D01*
X60049175Y-88523319D01*
X60055317Y-88527107D01*
X60055319Y-88527108D01*
X60055323Y-88527111D01*
X60123315Y-88558816D01*
X60126560Y-88560388D01*
X60193565Y-88594039D01*
X60193567Y-88594040D01*
X60193569Y-88594040D01*
X60200361Y-88596513D01*
X60200340Y-88596570D01*
X60207455Y-88599043D01*
X60207475Y-88598986D01*
X60214323Y-88601254D01*
X60214328Y-88601257D01*
X60287852Y-88616437D01*
X60291286Y-88617199D01*
X60336563Y-88627931D01*
X60364274Y-88634499D01*
X60364275Y-88634499D01*
X60364279Y-88634500D01*
X60364283Y-88634500D01*
X60371452Y-88635338D01*
X60371444Y-88635397D01*
X60378945Y-88636164D01*
X60378951Y-88636105D01*
X60386140Y-88636734D01*
X60386144Y-88636733D01*
X60386145Y-88636734D01*
X60461131Y-88634552D01*
X60464738Y-88634500D01*
X70863337Y-88634500D01*
X70930376Y-88654185D01*
X70964912Y-88687377D01*
X70989954Y-88723141D01*
X71150858Y-88884045D01*
X71150861Y-88884047D01*
X71337266Y-89014568D01*
X71395275Y-89041618D01*
X71447714Y-89087791D01*
X71466866Y-89154984D01*
X71446650Y-89221865D01*
X71395275Y-89266382D01*
X71337267Y-89293431D01*
X71337265Y-89293432D01*
X71253871Y-89351825D01*
X71196430Y-89392046D01*
X71183535Y-89401075D01*
X71117329Y-89423402D01*
X71112412Y-89423500D01*
X67324238Y-89423500D01*
X67321098Y-89423460D01*
X67233637Y-89421244D01*
X67233625Y-89421245D01*
X67175589Y-89431646D01*
X67166265Y-89432954D01*
X67107563Y-89438925D01*
X67107554Y-89438927D01*
X67078528Y-89448034D01*
X67063288Y-89451775D01*
X67033349Y-89457141D01*
X66978567Y-89479022D01*
X66969698Y-89482179D01*
X66913414Y-89499840D01*
X66913410Y-89499842D01*
X66886811Y-89514605D01*
X66872638Y-89521336D01*
X66844382Y-89532623D01*
X66844378Y-89532625D01*
X66795122Y-89565086D01*
X66787069Y-89569965D01*
X66735501Y-89598588D01*
X66712413Y-89618408D01*
X66699887Y-89627852D01*
X66674485Y-89644594D01*
X66674478Y-89644600D01*
X66632774Y-89686303D01*
X66625869Y-89692703D01*
X66581102Y-89731136D01*
X66562480Y-89755193D01*
X66552108Y-89766969D01*
X62486899Y-93832181D01*
X62425576Y-93865666D01*
X62399218Y-93868500D01*
X61552782Y-93868500D01*
X61485743Y-93848815D01*
X61465101Y-93832181D01*
X57399567Y-89766647D01*
X57397374Y-89764398D01*
X57337061Y-89700949D01*
X57337060Y-89700948D01*
X57337059Y-89700947D01*
X57288640Y-89667246D01*
X57281120Y-89661575D01*
X57235413Y-89624305D01*
X57235406Y-89624301D01*
X57208441Y-89610216D01*
X57195026Y-89602089D01*
X57170049Y-89584705D01*
X57170046Y-89584703D01*
X57170045Y-89584703D01*
X57170041Y-89584701D01*
X57115845Y-89561443D01*
X57107336Y-89557402D01*
X57055057Y-89530094D01*
X57055046Y-89530090D01*
X57025806Y-89521723D01*
X57011021Y-89516459D01*
X56983058Y-89504459D01*
X56925273Y-89492583D01*
X56916127Y-89490338D01*
X56859423Y-89474113D01*
X56835699Y-89472306D01*
X56829072Y-89471801D01*
X56813533Y-89469622D01*
X56783742Y-89463500D01*
X56783741Y-89463500D01*
X56724759Y-89463500D01*
X56715344Y-89463142D01*
X56712643Y-89462936D01*
X56656524Y-89458662D01*
X56626349Y-89462506D01*
X56610682Y-89463500D01*
X50407588Y-89463500D01*
X50340549Y-89443815D01*
X50336465Y-89441075D01*
X50333397Y-89438927D01*
X50182734Y-89333432D01*
X50099674Y-89294700D01*
X49976497Y-89237261D01*
X49976488Y-89237258D01*
X49756697Y-89178366D01*
X49756693Y-89178365D01*
X49756692Y-89178365D01*
X49756691Y-89178364D01*
X49756686Y-89178364D01*
X49530002Y-89158532D01*
X49529998Y-89158532D01*
X49303313Y-89178364D01*
X49303302Y-89178366D01*
X49083511Y-89237258D01*
X49083502Y-89237261D01*
X48877267Y-89333431D01*
X48877265Y-89333432D01*
X48807826Y-89382053D01*
X48800357Y-89387284D01*
X48780661Y-89401075D01*
X48714455Y-89423402D01*
X48709538Y-89423500D01*
X43124758Y-89423500D01*
X43057719Y-89403815D01*
X43037077Y-89387181D01*
X43035402Y-89385506D01*
X43035401Y-89385505D01*
X42849405Y-89255269D01*
X42805781Y-89200692D01*
X42798588Y-89131193D01*
X42830110Y-89068839D01*
X42849405Y-89052119D01*
X43035082Y-88922105D01*
X43202105Y-88755082D01*
X43337600Y-88561578D01*
X43437429Y-88347492D01*
X43437432Y-88347486D01*
X43494636Y-88134000D01*
X42597686Y-88134000D01*
X42623493Y-88093844D01*
X42664000Y-87955889D01*
X42664000Y-87812111D01*
X42623493Y-87674156D01*
X42597686Y-87634000D01*
X43494636Y-87634000D01*
X43494635Y-87633999D01*
X43437432Y-87420513D01*
X43437429Y-87420507D01*
X43337600Y-87206422D01*
X43337599Y-87206420D01*
X43202113Y-87012926D01*
X43202108Y-87012920D01*
X43080053Y-86890865D01*
X43046568Y-86829542D01*
X43051552Y-86759850D01*
X43093424Y-86703917D01*
X43124400Y-86687002D01*
X43256331Y-86637796D01*
X43371546Y-86551546D01*
X43457796Y-86436331D01*
X43508091Y-86301483D01*
X43514500Y-86241873D01*
X43514499Y-85713781D01*
X43534183Y-85646743D01*
X43550813Y-85626106D01*
X60592921Y-68583999D01*
X63745127Y-68583999D01*
X63745128Y-68584000D01*
X64708314Y-68584000D01*
X64696359Y-68595955D01*
X64638835Y-68708852D01*
X64619014Y-68834000D01*
X64638835Y-68959148D01*
X64696359Y-69072045D01*
X64708314Y-69084000D01*
X63745128Y-69084000D01*
X63797730Y-69280317D01*
X63797734Y-69280326D01*
X63893865Y-69486482D01*
X64024342Y-69672820D01*
X64185179Y-69833657D01*
X64371517Y-69964134D01*
X64577673Y-70060265D01*
X64577682Y-70060269D01*
X64773999Y-70112872D01*
X64774000Y-70112871D01*
X64774000Y-69149686D01*
X64785955Y-69161641D01*
X64898852Y-69219165D01*
X64992519Y-69234000D01*
X65055481Y-69234000D01*
X65149148Y-69219165D01*
X65262045Y-69161641D01*
X65274000Y-69149686D01*
X65274000Y-70112872D01*
X65470317Y-70060269D01*
X65470326Y-70060265D01*
X65676482Y-69964134D01*
X65862820Y-69833657D01*
X66023657Y-69672820D01*
X66154134Y-69486482D01*
X66250265Y-69280326D01*
X66250269Y-69280317D01*
X66302872Y-69084000D01*
X65339686Y-69084000D01*
X65351641Y-69072045D01*
X65409165Y-68959148D01*
X65428986Y-68834000D01*
X65409165Y-68708852D01*
X65351641Y-68595955D01*
X65339686Y-68584000D01*
X66302872Y-68584000D01*
X66302872Y-68583999D01*
X66250269Y-68387682D01*
X66250265Y-68387673D01*
X66154134Y-68181517D01*
X66023657Y-67995179D01*
X65862820Y-67834342D01*
X65676482Y-67703865D01*
X65470328Y-67607734D01*
X65274000Y-67555127D01*
X65274000Y-68518314D01*
X65262045Y-68506359D01*
X65149148Y-68448835D01*
X65055481Y-68434000D01*
X64992519Y-68434000D01*
X64898852Y-68448835D01*
X64785955Y-68506359D01*
X64774000Y-68518314D01*
X64774000Y-67555127D01*
X64577671Y-67607734D01*
X64371517Y-67703865D01*
X64185179Y-67834342D01*
X64024342Y-67995179D01*
X63893865Y-68181517D01*
X63797734Y-68387673D01*
X63797730Y-68387682D01*
X63745127Y-68583999D01*
X60592921Y-68583999D01*
X64954919Y-64222002D01*
X72101034Y-64222002D01*
X72120858Y-64448599D01*
X72120860Y-64448610D01*
X72179730Y-64668317D01*
X72179735Y-64668331D01*
X72275863Y-64874478D01*
X72326974Y-64947472D01*
X73008046Y-64266400D01*
X73020835Y-64347148D01*
X73078359Y-64460045D01*
X73167955Y-64549641D01*
X73280852Y-64607165D01*
X73361599Y-64619953D01*
X72680526Y-65301025D01*
X72753513Y-65352132D01*
X72753521Y-65352136D01*
X72959668Y-65448264D01*
X72959682Y-65448269D01*
X73179389Y-65507139D01*
X73179400Y-65507141D01*
X73405998Y-65526966D01*
X73406002Y-65526966D01*
X73632599Y-65507141D01*
X73632610Y-65507139D01*
X73852317Y-65448269D01*
X73852331Y-65448264D01*
X74058478Y-65352136D01*
X74131471Y-65301024D01*
X73450400Y-64619953D01*
X73531148Y-64607165D01*
X73644045Y-64549641D01*
X73733641Y-64460045D01*
X73791165Y-64347148D01*
X73803953Y-64266400D01*
X74485024Y-64947471D01*
X74536136Y-64874478D01*
X74632264Y-64668331D01*
X74632269Y-64668317D01*
X74691139Y-64448610D01*
X74691141Y-64448599D01*
X74710966Y-64222002D01*
X74710966Y-64221997D01*
X74691141Y-63995400D01*
X74691139Y-63995389D01*
X74632269Y-63775682D01*
X74632264Y-63775668D01*
X74536136Y-63569521D01*
X74536132Y-63569513D01*
X74485025Y-63496526D01*
X73803953Y-64177598D01*
X73791165Y-64096852D01*
X73733641Y-63983955D01*
X73644045Y-63894359D01*
X73531148Y-63836835D01*
X73450401Y-63824046D01*
X74131472Y-63142974D01*
X74058478Y-63091863D01*
X73852331Y-62995735D01*
X73852317Y-62995730D01*
X73632610Y-62936860D01*
X73632599Y-62936858D01*
X73406002Y-62917034D01*
X73405998Y-62917034D01*
X73179400Y-62936858D01*
X73179389Y-62936860D01*
X72959682Y-62995730D01*
X72959673Y-62995734D01*
X72753516Y-63091866D01*
X72753512Y-63091868D01*
X72680526Y-63142973D01*
X72680526Y-63142974D01*
X73361599Y-63824046D01*
X73280852Y-63836835D01*
X73167955Y-63894359D01*
X73078359Y-63983955D01*
X73020835Y-64096852D01*
X73008046Y-64177598D01*
X72326974Y-63496526D01*
X72326973Y-63496526D01*
X72275868Y-63569512D01*
X72275866Y-63569516D01*
X72179734Y-63775673D01*
X72179730Y-63775682D01*
X72120860Y-63995389D01*
X72120858Y-63995400D01*
X72101034Y-64221997D01*
X72101034Y-64222002D01*
X64954919Y-64222002D01*
X68918102Y-60258819D01*
X68979425Y-60225334D01*
X69005783Y-60222500D01*
X72528412Y-60222500D01*
X72595451Y-60242185D01*
G37*
%TD.AperFunction*%
%TA.AperFunction,Conductor*%
G36*
X168476616Y-52764190D02*
G01*
X168543617Y-52784002D01*
X168589272Y-52836892D01*
X168600064Y-52879344D01*
X168614804Y-53085433D01*
X168675628Y-53365037D01*
X168775635Y-53633166D01*
X168912770Y-53884309D01*
X168912775Y-53884317D01*
X169084254Y-54113387D01*
X169084270Y-54113405D01*
X169286594Y-54315729D01*
X169286612Y-54315745D01*
X169515682Y-54487224D01*
X169515690Y-54487229D01*
X169766833Y-54624364D01*
X169766832Y-54624364D01*
X169766836Y-54624365D01*
X169766839Y-54624367D01*
X170034954Y-54724369D01*
X170034960Y-54724370D01*
X170034962Y-54724371D01*
X170174763Y-54754782D01*
X170314572Y-54785196D01*
X170383146Y-54790100D01*
X170448610Y-54814516D01*
X170490482Y-54870450D01*
X170498299Y-54913189D01*
X170931815Y-145199075D01*
X170912452Y-145266208D01*
X170859868Y-145312216D01*
X170816662Y-145323354D01*
X170656566Y-145334804D01*
X170376962Y-145395628D01*
X170108833Y-145495635D01*
X169857690Y-145632770D01*
X169857682Y-145632775D01*
X169628612Y-145804254D01*
X169628594Y-145804270D01*
X169426270Y-146006594D01*
X169426254Y-146006612D01*
X169254775Y-146235682D01*
X169254770Y-146235690D01*
X169117635Y-146486833D01*
X169017628Y-146754962D01*
X168956805Y-147034563D01*
X168956804Y-147034570D01*
X168944912Y-147200829D01*
X168920495Y-147266293D01*
X168864561Y-147308164D01*
X168820993Y-147315982D01*
X38951110Y-147070016D01*
X38884108Y-147050204D01*
X38838453Y-146997314D01*
X38827661Y-146954862D01*
X38815196Y-146780572D01*
X38754369Y-146500954D01*
X38654367Y-146232839D01*
X38530833Y-146006605D01*
X38517229Y-145981690D01*
X38517224Y-145981682D01*
X38345745Y-145752612D01*
X38345729Y-145752594D01*
X38143405Y-145550270D01*
X38143387Y-145550254D01*
X37914317Y-145378775D01*
X37914309Y-145378770D01*
X37663166Y-145241635D01*
X37663167Y-145241635D01*
X37549059Y-145199075D01*
X37395046Y-145141631D01*
X37395043Y-145141630D01*
X37395037Y-145141628D01*
X37115433Y-145080804D01*
X36934967Y-145067897D01*
X36869502Y-145043480D01*
X36827631Y-144987546D01*
X36819814Y-144944813D01*
X36710478Y-122174001D01*
X47970532Y-122174001D01*
X47990364Y-122400686D01*
X47990366Y-122400697D01*
X48049258Y-122620488D01*
X48049261Y-122620497D01*
X48145431Y-122826732D01*
X48145432Y-122826734D01*
X48275954Y-123013141D01*
X48436858Y-123174045D01*
X48436861Y-123174047D01*
X48623266Y-123304568D01*
X48829504Y-123400739D01*
X49049308Y-123459635D01*
X49211230Y-123473801D01*
X49275998Y-123479468D01*
X49276000Y-123479468D01*
X49276002Y-123479468D01*
X49332673Y-123474509D01*
X49502692Y-123459635D01*
X49722496Y-123400739D01*
X49928734Y-123304568D01*
X50115139Y-123174047D01*
X50276047Y-123013139D01*
X50406568Y-122826734D01*
X50502739Y-122620496D01*
X50561635Y-122400692D01*
X50581468Y-122174000D01*
X50561635Y-121947308D01*
X50502739Y-121727504D01*
X50406568Y-121521266D01*
X50333164Y-121416433D01*
X50276048Y-121334862D01*
X50259844Y-121318658D01*
X50115139Y-121173953D01*
X50110373Y-121170615D01*
X50079375Y-121148910D01*
X50035751Y-121094332D01*
X50026500Y-121047336D01*
X50026500Y-114410662D01*
X50046185Y-114343623D01*
X50079379Y-114309086D01*
X50115140Y-114284046D01*
X50276045Y-114123141D01*
X50276047Y-114123139D01*
X50406568Y-113936734D01*
X50502739Y-113730496D01*
X50561635Y-113510692D01*
X50581468Y-113284000D01*
X50561635Y-113057308D01*
X50502739Y-112837504D01*
X50406568Y-112631266D01*
X50276047Y-112444861D01*
X50276045Y-112444858D01*
X50115141Y-112283954D01*
X49928734Y-112153432D01*
X49928732Y-112153431D01*
X49722497Y-112057261D01*
X49722488Y-112057258D01*
X49502697Y-111998366D01*
X49502693Y-111998365D01*
X49502692Y-111998365D01*
X49502691Y-111998364D01*
X49502686Y-111998364D01*
X49276002Y-111978532D01*
X49275998Y-111978532D01*
X49049313Y-111998364D01*
X49049302Y-111998366D01*
X48829511Y-112057258D01*
X48829502Y-112057261D01*
X48623267Y-112153431D01*
X48623265Y-112153432D01*
X48436858Y-112283954D01*
X48275954Y-112444858D01*
X48145432Y-112631265D01*
X48145431Y-112631267D01*
X48049261Y-112837502D01*
X48049258Y-112837511D01*
X47990366Y-113057302D01*
X47990364Y-113057313D01*
X47970532Y-113283998D01*
X47970532Y-113284001D01*
X47990364Y-113510686D01*
X47990366Y-113510697D01*
X48049258Y-113730488D01*
X48049261Y-113730497D01*
X48145431Y-113936732D01*
X48145432Y-113936734D01*
X48275954Y-114123141D01*
X48436859Y-114284046D01*
X48472621Y-114309086D01*
X48516247Y-114363662D01*
X48525500Y-114410662D01*
X48525500Y-121047336D01*
X48505815Y-121114375D01*
X48472625Y-121148910D01*
X48436863Y-121173951D01*
X48275951Y-121334862D01*
X48145432Y-121521265D01*
X48145431Y-121521267D01*
X48049261Y-121727502D01*
X48049258Y-121727511D01*
X47990366Y-121947302D01*
X47990364Y-121947313D01*
X47970532Y-122173998D01*
X47970532Y-122174001D01*
X36710478Y-122174001D01*
X36588518Y-96774001D01*
X55336532Y-96774001D01*
X55356364Y-97000686D01*
X55356366Y-97000697D01*
X55415258Y-97220488D01*
X55415261Y-97220497D01*
X55511431Y-97426732D01*
X55511432Y-97426734D01*
X55641954Y-97613141D01*
X55802859Y-97774046D01*
X55838621Y-97799086D01*
X55882247Y-97853662D01*
X55891500Y-97900662D01*
X55891500Y-125920294D01*
X55890191Y-125938263D01*
X55886710Y-125962025D01*
X55891028Y-126011368D01*
X55891500Y-126022176D01*
X55891500Y-126027711D01*
X55895098Y-126058495D01*
X55895464Y-126062083D01*
X55902000Y-126136791D01*
X55903461Y-126143867D01*
X55903403Y-126143878D01*
X55905034Y-126151237D01*
X55905092Y-126151224D01*
X55906757Y-126158249D01*
X55932400Y-126228705D01*
X55933582Y-126232107D01*
X55957182Y-126303326D01*
X55960236Y-126309874D01*
X55960182Y-126309898D01*
X55963470Y-126316688D01*
X55963521Y-126316663D01*
X55966761Y-126323114D01*
X56007979Y-126385784D01*
X56009889Y-126388782D01*
X56022331Y-126408952D01*
X56049289Y-126452658D01*
X56053766Y-126458319D01*
X56053719Y-126458356D01*
X56058482Y-126464202D01*
X56058528Y-126464164D01*
X56063173Y-126469699D01*
X56117707Y-126521149D01*
X56120295Y-126523663D01*
X73082270Y-143485638D01*
X73094051Y-143499270D01*
X73108388Y-143518528D01*
X73146337Y-143550372D01*
X73154310Y-143557679D01*
X73158217Y-143561586D01*
X73158223Y-143561591D01*
X73182537Y-143580816D01*
X73185318Y-143583080D01*
X73212956Y-143606271D01*
X73242789Y-143631305D01*
X73248818Y-143635270D01*
X73248785Y-143635319D01*
X73255147Y-143639372D01*
X73255179Y-143639321D01*
X73261319Y-143643108D01*
X73261323Y-143643111D01*
X73299977Y-143661135D01*
X73329320Y-143674819D01*
X73332566Y-143676391D01*
X73399562Y-143710038D01*
X73406357Y-143712511D01*
X73406336Y-143712567D01*
X73413457Y-143715043D01*
X73413476Y-143714986D01*
X73420319Y-143717253D01*
X73420327Y-143717257D01*
X73493895Y-143732447D01*
X73497228Y-143733186D01*
X73570279Y-143750500D01*
X73570281Y-143750500D01*
X73570285Y-143750501D01*
X73577453Y-143751339D01*
X73577446Y-143751398D01*
X73584944Y-143752164D01*
X73584950Y-143752105D01*
X73592139Y-143752734D01*
X73592143Y-143752733D01*
X73592144Y-143752734D01*
X73667130Y-143750552D01*
X73670737Y-143750500D01*
X115762295Y-143750500D01*
X115780265Y-143751809D01*
X115804023Y-143755289D01*
X115853369Y-143750971D01*
X115864176Y-143750500D01*
X115869704Y-143750500D01*
X115869709Y-143750500D01*
X115900556Y-143746893D01*
X115904030Y-143746539D01*
X115978797Y-143739999D01*
X115978805Y-143739996D01*
X115985866Y-143738539D01*
X115985878Y-143738598D01*
X115993243Y-143736965D01*
X115993229Y-143736906D01*
X116000249Y-143735241D01*
X116000255Y-143735241D01*
X116070779Y-143709572D01*
X116074117Y-143708412D01*
X116145334Y-143684814D01*
X116145342Y-143684808D01*
X116151882Y-143681760D01*
X116151908Y-143681816D01*
X116158690Y-143678532D01*
X116158663Y-143678478D01*
X116165113Y-143675238D01*
X116165117Y-143675237D01*
X116227837Y-143633984D01*
X116230732Y-143632140D01*
X116294656Y-143592712D01*
X116294662Y-143592705D01*
X116300325Y-143588229D01*
X116300363Y-143588277D01*
X116306200Y-143583522D01*
X116306161Y-143583475D01*
X116311691Y-143578833D01*
X116311696Y-143578830D01*
X116363184Y-143524254D01*
X116365631Y-143521735D01*
X138153638Y-121733727D01*
X138167267Y-121721950D01*
X138186530Y-121707610D01*
X138218366Y-121669669D01*
X138225683Y-121661684D01*
X138226992Y-121660373D01*
X138229591Y-121657776D01*
X138248853Y-121633413D01*
X138251076Y-121630686D01*
X138282748Y-121592942D01*
X138299302Y-121573214D01*
X138299304Y-121573209D01*
X138303274Y-121567175D01*
X138303325Y-121567208D01*
X138307369Y-121560860D01*
X138307317Y-121560828D01*
X138311106Y-121554682D01*
X138311111Y-121554677D01*
X138342832Y-121486647D01*
X138344358Y-121483496D01*
X138378040Y-121416433D01*
X138378041Y-121416428D01*
X138380508Y-121409650D01*
X138380566Y-121409671D01*
X138383043Y-121402544D01*
X138382986Y-121402526D01*
X138385256Y-121395676D01*
X138390477Y-121370390D01*
X138400439Y-121322139D01*
X138401187Y-121318762D01*
X138418500Y-121245721D01*
X138418500Y-121245717D01*
X138418501Y-121245713D01*
X138419339Y-121238548D01*
X138419398Y-121238554D01*
X138420164Y-121231054D01*
X138420105Y-121231049D01*
X138420734Y-121223859D01*
X138418552Y-121148869D01*
X138418500Y-121145262D01*
X138418500Y-119490662D01*
X138438185Y-119423623D01*
X138471379Y-119389086D01*
X138507140Y-119364046D01*
X138668045Y-119203141D01*
X138668047Y-119203139D01*
X138798568Y-119016734D01*
X138894739Y-118810496D01*
X138953635Y-118590692D01*
X138959040Y-118528905D01*
X138984492Y-118463838D01*
X138994880Y-118452039D01*
X139309309Y-118137609D01*
X139309314Y-118137606D01*
X139319517Y-118127402D01*
X139319519Y-118127402D01*
X146936102Y-110510819D01*
X146997425Y-110477334D01*
X147023783Y-110474500D01*
X156297136Y-110474500D01*
X156364175Y-110494185D01*
X156394081Y-110521185D01*
X156483950Y-110633877D01*
X156483955Y-110633881D01*
X156483958Y-110633885D01*
X156670774Y-110807225D01*
X156670779Y-110807228D01*
X156670783Y-110807232D01*
X156679351Y-110813073D01*
X156723652Y-110867099D01*
X156733500Y-110915527D01*
X156733500Y-122029858D01*
X156713815Y-122096897D01*
X156661011Y-122142652D01*
X156652847Y-122146034D01*
X156641669Y-122150204D01*
X156641664Y-122150206D01*
X156526455Y-122236452D01*
X156526452Y-122236455D01*
X156440206Y-122351664D01*
X156440202Y-122351671D01*
X156389908Y-122486517D01*
X156383501Y-122546116D01*
X156383501Y-122546123D01*
X156383500Y-122546135D01*
X156383500Y-124341870D01*
X156383501Y-124341876D01*
X156389908Y-124401483D01*
X156440202Y-124536328D01*
X156440206Y-124536335D01*
X156526452Y-124651544D01*
X156526455Y-124651547D01*
X156641664Y-124737793D01*
X156641671Y-124737797D01*
X156641674Y-124737798D01*
X156773598Y-124787002D01*
X156829531Y-124828873D01*
X156853949Y-124894337D01*
X156839098Y-124962610D01*
X156817947Y-124990865D01*
X156695886Y-125112926D01*
X156560400Y-125306420D01*
X156560399Y-125306422D01*
X156460570Y-125520507D01*
X156460567Y-125520513D01*
X156403364Y-125733999D01*
X156403364Y-125734000D01*
X157300314Y-125734000D01*
X157274507Y-125774156D01*
X157234000Y-125912111D01*
X157234000Y-126055889D01*
X157274507Y-126193844D01*
X157300314Y-126234000D01*
X156403364Y-126234000D01*
X156460567Y-126447486D01*
X156460570Y-126447492D01*
X156560399Y-126661578D01*
X156695894Y-126855082D01*
X156862917Y-127022105D01*
X157056421Y-127157600D01*
X157270507Y-127257429D01*
X157270516Y-127257433D01*
X157484000Y-127314634D01*
X157484000Y-126419501D01*
X157591685Y-126468680D01*
X157698237Y-126484000D01*
X157769763Y-126484000D01*
X157876315Y-126468680D01*
X157984000Y-126419501D01*
X157984000Y-127314633D01*
X158197483Y-127257433D01*
X158197492Y-127257429D01*
X158411578Y-127157600D01*
X158605082Y-127022105D01*
X158772105Y-126855082D01*
X158907600Y-126661578D01*
X159007429Y-126447492D01*
X159007432Y-126447486D01*
X159064636Y-126234000D01*
X158167686Y-126234000D01*
X158193493Y-126193844D01*
X158234000Y-126055889D01*
X158234000Y-125912111D01*
X158193493Y-125774156D01*
X158167686Y-125734000D01*
X159064636Y-125734000D01*
X159064635Y-125733999D01*
X159007432Y-125520513D01*
X159007429Y-125520507D01*
X158907600Y-125306422D01*
X158907599Y-125306420D01*
X158772113Y-125112926D01*
X158772108Y-125112920D01*
X158650053Y-124990865D01*
X158616568Y-124929542D01*
X158621552Y-124859850D01*
X158663424Y-124803917D01*
X158694400Y-124787002D01*
X158826331Y-124737796D01*
X158941546Y-124651546D01*
X159027796Y-124536331D01*
X159078091Y-124401483D01*
X159084500Y-124341873D01*
X159084499Y-122546128D01*
X159078091Y-122486517D01*
X159046082Y-122400697D01*
X159027797Y-122351671D01*
X159027793Y-122351664D01*
X158941547Y-122236455D01*
X158941544Y-122236452D01*
X158826335Y-122150206D01*
X158826332Y-122150205D01*
X158826331Y-122150204D01*
X158815161Y-122146038D01*
X158759231Y-122104166D01*
X158734816Y-122038701D01*
X158734500Y-122029858D01*
X158734500Y-110915527D01*
X158754185Y-110848488D01*
X158788647Y-110813074D01*
X158797217Y-110807232D01*
X158984050Y-110633877D01*
X159142959Y-110434612D01*
X159270393Y-110213888D01*
X159363508Y-109976637D01*
X159420222Y-109728157D01*
X159439268Y-109474000D01*
X159420222Y-109219843D01*
X159366585Y-108984844D01*
X159370858Y-108915106D01*
X159399793Y-108869573D01*
X161659638Y-106609727D01*
X161673267Y-106597950D01*
X161675172Y-106596532D01*
X161692530Y-106583610D01*
X161724366Y-106545669D01*
X161731683Y-106537684D01*
X161732992Y-106536373D01*
X161735591Y-106533776D01*
X161754853Y-106509413D01*
X161757076Y-106506686D01*
X161757419Y-106506277D01*
X161805302Y-106449214D01*
X161805304Y-106449209D01*
X161809274Y-106443175D01*
X161809325Y-106443208D01*
X161813369Y-106436860D01*
X161813317Y-106436828D01*
X161817106Y-106430682D01*
X161817111Y-106430677D01*
X161848832Y-106362647D01*
X161850358Y-106359496D01*
X161884040Y-106292433D01*
X161884041Y-106292428D01*
X161886508Y-106285650D01*
X161886566Y-106285671D01*
X161889043Y-106278544D01*
X161888986Y-106278526D01*
X161891256Y-106271676D01*
X161891257Y-106271672D01*
X161906439Y-106198139D01*
X161907187Y-106194762D01*
X161924500Y-106121721D01*
X161924500Y-106121717D01*
X161924501Y-106121713D01*
X161925339Y-106114548D01*
X161925398Y-106114554D01*
X161926164Y-106107054D01*
X161926105Y-106107049D01*
X161926734Y-106099859D01*
X161924552Y-106024869D01*
X161924500Y-106021262D01*
X161924500Y-89518662D01*
X161944185Y-89451623D01*
X161977379Y-89417086D01*
X161996332Y-89403815D01*
X162013139Y-89392047D01*
X162174047Y-89231139D01*
X162304568Y-89044734D01*
X162400739Y-88838496D01*
X162459635Y-88618692D01*
X162479468Y-88392000D01*
X162459635Y-88165308D01*
X162400739Y-87945504D01*
X162304568Y-87739266D01*
X162174047Y-87552861D01*
X162174045Y-87552858D01*
X162013141Y-87391954D01*
X161826734Y-87261432D01*
X161826732Y-87261431D01*
X161620497Y-87165261D01*
X161620488Y-87165258D01*
X161400697Y-87106366D01*
X161400693Y-87106365D01*
X161400692Y-87106365D01*
X161400691Y-87106364D01*
X161400686Y-87106364D01*
X161174002Y-87086532D01*
X161173998Y-87086532D01*
X160947313Y-87106364D01*
X160947302Y-87106366D01*
X160727511Y-87165258D01*
X160727502Y-87165261D01*
X160521267Y-87261431D01*
X160521265Y-87261432D01*
X160334858Y-87391954D01*
X160173954Y-87552858D01*
X160043432Y-87739265D01*
X160043431Y-87739267D01*
X159947261Y-87945502D01*
X159947258Y-87945511D01*
X159888366Y-88165302D01*
X159888364Y-88165313D01*
X159868532Y-88391998D01*
X159868532Y-88392001D01*
X159888364Y-88618686D01*
X159888366Y-88618697D01*
X159947258Y-88838488D01*
X159947261Y-88838497D01*
X160043431Y-89044732D01*
X160043432Y-89044734D01*
X160173954Y-89231141D01*
X160334859Y-89392046D01*
X160370621Y-89417086D01*
X160414247Y-89471662D01*
X160423500Y-89518662D01*
X160423500Y-105671770D01*
X160403815Y-105738809D01*
X160387181Y-105759451D01*
X158335717Y-107810914D01*
X158274394Y-107844399D01*
X158211487Y-107841724D01*
X158113470Y-107811490D01*
X158113463Y-107811488D01*
X158113458Y-107811487D01*
X157992231Y-107793214D01*
X157861440Y-107773500D01*
X157861435Y-107773500D01*
X157606565Y-107773500D01*
X157606559Y-107773500D01*
X157449609Y-107797157D01*
X157354542Y-107811487D01*
X157354539Y-107811488D01*
X157354533Y-107811489D01*
X157110992Y-107886612D01*
X156881373Y-107997190D01*
X156881372Y-107997191D01*
X156670782Y-108140768D01*
X156574711Y-108229909D01*
X156483950Y-108314123D01*
X156419986Y-108394332D01*
X156394083Y-108426813D01*
X156336894Y-108466953D01*
X156297136Y-108473500D01*
X146572278Y-108473500D01*
X146569138Y-108473460D01*
X146532654Y-108472535D01*
X146481637Y-108471243D01*
X146481636Y-108471243D01*
X146481627Y-108471243D01*
X146423572Y-108481649D01*
X146414243Y-108482958D01*
X146355562Y-108488925D01*
X146326532Y-108498033D01*
X146311294Y-108501773D01*
X146281349Y-108507140D01*
X146281347Y-108507141D01*
X146226554Y-108529026D01*
X146217685Y-108532183D01*
X146161417Y-108549838D01*
X146161406Y-108549843D01*
X146134814Y-108564602D01*
X146120645Y-108571332D01*
X146092380Y-108582623D01*
X146092373Y-108582627D01*
X146043122Y-108615086D01*
X146035066Y-108619967D01*
X145983502Y-108648588D01*
X145983499Y-108648590D01*
X145960405Y-108668414D01*
X145947883Y-108677855D01*
X145922482Y-108694598D01*
X145922475Y-108694603D01*
X145880781Y-108736297D01*
X145873874Y-108742698D01*
X145829106Y-108781132D01*
X145829105Y-108781133D01*
X145810480Y-108805194D01*
X145800107Y-108816971D01*
X138055898Y-116561181D01*
X137994575Y-116594666D01*
X137968217Y-116597500D01*
X137367782Y-116597500D01*
X137300743Y-116577815D01*
X137280101Y-116561181D01*
X118259192Y-97540272D01*
X118225707Y-97478949D01*
X118230691Y-97409257D01*
X118272563Y-97353324D01*
X118276993Y-97350157D01*
X118284217Y-97345232D01*
X118369559Y-97266047D01*
X118418651Y-97220496D01*
X118471050Y-97171877D01*
X118629959Y-96972612D01*
X118757393Y-96751888D01*
X118850508Y-96514637D01*
X118907222Y-96266157D01*
X118926268Y-96012000D01*
X118920487Y-95934861D01*
X118907222Y-95757845D01*
X118904133Y-95744312D01*
X118850508Y-95509363D01*
X118757393Y-95272112D01*
X118629959Y-95051388D01*
X118471050Y-94852123D01*
X118284217Y-94678768D01*
X118073634Y-94535195D01*
X118073630Y-94535193D01*
X118073627Y-94535191D01*
X118073626Y-94535190D01*
X117844006Y-94424612D01*
X117844008Y-94424612D01*
X117600466Y-94349489D01*
X117600462Y-94349488D01*
X117600458Y-94349487D01*
X117479231Y-94331214D01*
X117348440Y-94311500D01*
X117348435Y-94311500D01*
X117093565Y-94311500D01*
X117093559Y-94311500D01*
X116936609Y-94335157D01*
X116841542Y-94349487D01*
X116841539Y-94349488D01*
X116841533Y-94349489D01*
X116597992Y-94424612D01*
X116368373Y-94535190D01*
X116368372Y-94535191D01*
X116157782Y-94678768D01*
X115970952Y-94852121D01*
X115970950Y-94852123D01*
X115812041Y-95051388D01*
X115684608Y-95272109D01*
X115591492Y-95509362D01*
X115591490Y-95509369D01*
X115534777Y-95757845D01*
X115515732Y-96011995D01*
X115515732Y-96012004D01*
X115534777Y-96266154D01*
X115586481Y-96492686D01*
X115591492Y-96514637D01*
X115684607Y-96751888D01*
X115812041Y-96972612D01*
X115970950Y-97171877D01*
X115970955Y-97171881D01*
X115970958Y-97171885D01*
X116157774Y-97345225D01*
X116157779Y-97345228D01*
X116157783Y-97345232D01*
X116166351Y-97351073D01*
X116210652Y-97405099D01*
X116220500Y-97453527D01*
X116220500Y-97902721D01*
X116220460Y-97905861D01*
X116218243Y-97993362D01*
X116218243Y-97993371D01*
X116228648Y-98051420D01*
X116229956Y-98060748D01*
X116235925Y-98119430D01*
X116235927Y-98119444D01*
X116245033Y-98148468D01*
X116248772Y-98163701D01*
X116254142Y-98193653D01*
X116254142Y-98193655D01*
X116276020Y-98248424D01*
X116279177Y-98257292D01*
X116296841Y-98313588D01*
X116296842Y-98313589D01*
X116296844Y-98313595D01*
X116311603Y-98340185D01*
X116318336Y-98354361D01*
X116329622Y-98382614D01*
X116329627Y-98382624D01*
X116362080Y-98431866D01*
X116366962Y-98439923D01*
X116395588Y-98491498D01*
X116395589Y-98491500D01*
X116395591Y-98491502D01*
X116415410Y-98514588D01*
X116424855Y-98527115D01*
X116441599Y-98552521D01*
X116483299Y-98594220D01*
X116489704Y-98601131D01*
X116528131Y-98645892D01*
X116528134Y-98645895D01*
X116552187Y-98664513D01*
X116563968Y-98674889D01*
X136341111Y-118452032D01*
X136374596Y-118513355D01*
X136376958Y-118528903D01*
X136382364Y-118590688D01*
X136382366Y-118590697D01*
X136441258Y-118810488D01*
X136441261Y-118810497D01*
X136537431Y-119016732D01*
X136537432Y-119016734D01*
X136667954Y-119203141D01*
X136828859Y-119364046D01*
X136864621Y-119389086D01*
X136908247Y-119443662D01*
X136917500Y-119490662D01*
X136917500Y-120795770D01*
X136897815Y-120862809D01*
X136881181Y-120883451D01*
X115551451Y-142213181D01*
X115490128Y-142246666D01*
X115463770Y-142249500D01*
X74020230Y-142249500D01*
X73953191Y-142229815D01*
X73932549Y-142213181D01*
X57428819Y-125709451D01*
X57395334Y-125648128D01*
X57392500Y-125621770D01*
X57392500Y-122174001D01*
X60670532Y-122174001D01*
X60690364Y-122400686D01*
X60690366Y-122400697D01*
X60749258Y-122620488D01*
X60749261Y-122620497D01*
X60845431Y-122826732D01*
X60845432Y-122826734D01*
X60975954Y-123013141D01*
X61136858Y-123174045D01*
X61136861Y-123174047D01*
X61323266Y-123304568D01*
X61529504Y-123400739D01*
X61749308Y-123459635D01*
X61911230Y-123473801D01*
X61975998Y-123479468D01*
X61976000Y-123479468D01*
X61976002Y-123479468D01*
X62032673Y-123474509D01*
X62202692Y-123459635D01*
X62422496Y-123400739D01*
X62628734Y-123304568D01*
X62815139Y-123174047D01*
X62976047Y-123013139D01*
X63001088Y-122977377D01*
X63055665Y-122933752D01*
X63102663Y-122924500D01*
X66437337Y-122924500D01*
X66504376Y-122944185D01*
X66538912Y-122977377D01*
X66563954Y-123013141D01*
X66724858Y-123174045D01*
X66724861Y-123174047D01*
X66911266Y-123304568D01*
X67117504Y-123400739D01*
X67337308Y-123459635D01*
X67499230Y-123473801D01*
X67563998Y-123479468D01*
X67564000Y-123479468D01*
X67564002Y-123479468D01*
X67620673Y-123474509D01*
X67790692Y-123459635D01*
X68010496Y-123400739D01*
X68216734Y-123304568D01*
X68403139Y-123174047D01*
X68564047Y-123013139D01*
X68694568Y-122826734D01*
X68790739Y-122620496D01*
X68849635Y-122400692D01*
X68869468Y-122174000D01*
X68849635Y-121947308D01*
X68790739Y-121727504D01*
X68694568Y-121521266D01*
X68564047Y-121334861D01*
X68564045Y-121334858D01*
X68403141Y-121173954D01*
X68216734Y-121043432D01*
X68216732Y-121043431D01*
X68010497Y-120947261D01*
X68010488Y-120947258D01*
X67790697Y-120888366D01*
X67790693Y-120888365D01*
X67790692Y-120888365D01*
X67790691Y-120888364D01*
X67790686Y-120888364D01*
X67564002Y-120868532D01*
X67563998Y-120868532D01*
X67337313Y-120888364D01*
X67337302Y-120888366D01*
X67117511Y-120947258D01*
X67117502Y-120947261D01*
X66911267Y-121043431D01*
X66911265Y-121043432D01*
X66724858Y-121173954D01*
X66563954Y-121334858D01*
X66538912Y-121370623D01*
X66484335Y-121414248D01*
X66437337Y-121423500D01*
X63102663Y-121423500D01*
X63035624Y-121403815D01*
X63001088Y-121370623D01*
X62976045Y-121334858D01*
X62815141Y-121173954D01*
X62628734Y-121043432D01*
X62628732Y-121043431D01*
X62422497Y-120947261D01*
X62422488Y-120947258D01*
X62202697Y-120888366D01*
X62202693Y-120888365D01*
X62202692Y-120888365D01*
X62202691Y-120888364D01*
X62202686Y-120888364D01*
X61976002Y-120868532D01*
X61975998Y-120868532D01*
X61749313Y-120888364D01*
X61749302Y-120888366D01*
X61529511Y-120947258D01*
X61529502Y-120947261D01*
X61323267Y-121043431D01*
X61323265Y-121043432D01*
X61136858Y-121173954D01*
X60975954Y-121334858D01*
X60845432Y-121521265D01*
X60845431Y-121521267D01*
X60749261Y-121727502D01*
X60749258Y-121727511D01*
X60690366Y-121947302D01*
X60690364Y-121947313D01*
X60670532Y-122173998D01*
X60670532Y-122174001D01*
X57392500Y-122174001D01*
X57392500Y-103191586D01*
X57412185Y-103124547D01*
X57464989Y-103078792D01*
X57534147Y-103068848D01*
X57597703Y-103097873D01*
X57618075Y-103120463D01*
X57674339Y-103200817D01*
X57835179Y-103361657D01*
X58021517Y-103492134D01*
X58227673Y-103588265D01*
X58227682Y-103588269D01*
X58423999Y-103640872D01*
X58424000Y-103640871D01*
X58424000Y-102677686D01*
X58435955Y-102689641D01*
X58548852Y-102747165D01*
X58642519Y-102762000D01*
X58705481Y-102762000D01*
X58799148Y-102747165D01*
X58912045Y-102689641D01*
X58924000Y-102677686D01*
X58924000Y-103640872D01*
X59120317Y-103588269D01*
X59120326Y-103588265D01*
X59326482Y-103492134D01*
X59512820Y-103361657D01*
X59673657Y-103200820D01*
X59804134Y-103014482D01*
X59900265Y-102808326D01*
X59900269Y-102808317D01*
X59952872Y-102612000D01*
X58989686Y-102612000D01*
X59001641Y-102600045D01*
X59059165Y-102487148D01*
X59078986Y-102362000D01*
X59059165Y-102236852D01*
X59001641Y-102123955D01*
X58989686Y-102112000D01*
X59952872Y-102112000D01*
X59952872Y-102111999D01*
X59900269Y-101915682D01*
X59900265Y-101915673D01*
X59804134Y-101709517D01*
X59673657Y-101523179D01*
X59512820Y-101362342D01*
X59326482Y-101231865D01*
X59120328Y-101135734D01*
X58924000Y-101083127D01*
X58924000Y-102046314D01*
X58912045Y-102034359D01*
X58799148Y-101976835D01*
X58705481Y-101962000D01*
X58642519Y-101962000D01*
X58548852Y-101976835D01*
X58435955Y-102034359D01*
X58424000Y-102046314D01*
X58424000Y-101083127D01*
X58227671Y-101135734D01*
X58021517Y-101231865D01*
X57835179Y-101362342D01*
X57674342Y-101523179D01*
X57618075Y-101603537D01*
X57563497Y-101647162D01*
X57493999Y-101654354D01*
X57431644Y-101622832D01*
X57396231Y-101562602D01*
X57392500Y-101532413D01*
X57392500Y-97900662D01*
X57412185Y-97833623D01*
X57445379Y-97799086D01*
X57481140Y-97774046D01*
X57642045Y-97613141D01*
X57642047Y-97613139D01*
X57772568Y-97426734D01*
X57868739Y-97220496D01*
X57927635Y-97000692D01*
X57947468Y-96774000D01*
X57945533Y-96751888D01*
X57931732Y-96594136D01*
X57927635Y-96547308D01*
X57868739Y-96327504D01*
X57772568Y-96121266D01*
X57642047Y-95934861D01*
X57642045Y-95934858D01*
X57481141Y-95773954D01*
X57294734Y-95643432D01*
X57294732Y-95643431D01*
X57088497Y-95547261D01*
X57088488Y-95547258D01*
X56868697Y-95488366D01*
X56868693Y-95488365D01*
X56868692Y-95488365D01*
X56868691Y-95488364D01*
X56868686Y-95488364D01*
X56642002Y-95468532D01*
X56641998Y-95468532D01*
X56415313Y-95488364D01*
X56415302Y-95488366D01*
X56195511Y-95547258D01*
X56195502Y-95547261D01*
X55989267Y-95643431D01*
X55989265Y-95643432D01*
X55802858Y-95773954D01*
X55641954Y-95934858D01*
X55511432Y-96121265D01*
X55511431Y-96121267D01*
X55415261Y-96327502D01*
X55415258Y-96327511D01*
X55356366Y-96547302D01*
X55356364Y-96547313D01*
X55336532Y-96773998D01*
X55336532Y-96774001D01*
X36588518Y-96774001D01*
X36582228Y-95464002D01*
X48225034Y-95464002D01*
X48244858Y-95690599D01*
X48244860Y-95690610D01*
X48303730Y-95910317D01*
X48303735Y-95910331D01*
X48399863Y-96116478D01*
X48450974Y-96189472D01*
X49132046Y-95508400D01*
X49144835Y-95589148D01*
X49202359Y-95702045D01*
X49291955Y-95791641D01*
X49404852Y-95849165D01*
X49485599Y-95861953D01*
X48804526Y-96543025D01*
X48877513Y-96594132D01*
X48877521Y-96594136D01*
X49083668Y-96690264D01*
X49083682Y-96690269D01*
X49303389Y-96749139D01*
X49303400Y-96749141D01*
X49529998Y-96768966D01*
X49530002Y-96768966D01*
X49756599Y-96749141D01*
X49756610Y-96749139D01*
X49976317Y-96690269D01*
X49976331Y-96690264D01*
X50182478Y-96594136D01*
X50255471Y-96543024D01*
X49574400Y-95861953D01*
X49655148Y-95849165D01*
X49768045Y-95791641D01*
X49857641Y-95702045D01*
X49915165Y-95589148D01*
X49927953Y-95508400D01*
X50609024Y-96189471D01*
X50660136Y-96116478D01*
X50756264Y-95910331D01*
X50756269Y-95910317D01*
X50815139Y-95690610D01*
X50815141Y-95690599D01*
X50834966Y-95464002D01*
X50834966Y-95463997D01*
X50815141Y-95237400D01*
X50815139Y-95237389D01*
X50756269Y-95017682D01*
X50756264Y-95017668D01*
X50660136Y-94811521D01*
X50660132Y-94811513D01*
X50609025Y-94738526D01*
X49927953Y-95419598D01*
X49915165Y-95338852D01*
X49857641Y-95225955D01*
X49768045Y-95136359D01*
X49655148Y-95078835D01*
X49574401Y-95066046D01*
X50255472Y-94384974D01*
X50182478Y-94333863D01*
X49976331Y-94237735D01*
X49976317Y-94237730D01*
X49756610Y-94178860D01*
X49756599Y-94178858D01*
X49530002Y-94159034D01*
X49529998Y-94159034D01*
X49303400Y-94178858D01*
X49303389Y-94178860D01*
X49083682Y-94237730D01*
X49083673Y-94237734D01*
X48877516Y-94333866D01*
X48877512Y-94333868D01*
X48804526Y-94384973D01*
X48804526Y-94384974D01*
X49485599Y-95066046D01*
X49404852Y-95078835D01*
X49291955Y-95136359D01*
X49202359Y-95225955D01*
X49144835Y-95338852D01*
X49132046Y-95419598D01*
X48450974Y-94738526D01*
X48450973Y-94738526D01*
X48399868Y-94811512D01*
X48399866Y-94811516D01*
X48303734Y-95017673D01*
X48303730Y-95017682D01*
X48244860Y-95237389D01*
X48244858Y-95237400D01*
X48225034Y-95463997D01*
X48225034Y-95464002D01*
X36582228Y-95464002D01*
X36558028Y-90424000D01*
X40808341Y-90424000D01*
X40828936Y-90659403D01*
X40828938Y-90659413D01*
X40890094Y-90887655D01*
X40890096Y-90887659D01*
X40890097Y-90887663D01*
X40978262Y-91076732D01*
X40989965Y-91101830D01*
X40989967Y-91101834D01*
X41098281Y-91256521D01*
X41125505Y-91295401D01*
X41292599Y-91462495D01*
X41389384Y-91530265D01*
X41486165Y-91598032D01*
X41486167Y-91598033D01*
X41486170Y-91598035D01*
X41700337Y-91697903D01*
X41700343Y-91697904D01*
X41700344Y-91697905D01*
X41728690Y-91705500D01*
X41928592Y-91759063D01*
X42116918Y-91775539D01*
X42163999Y-91779659D01*
X42164000Y-91779659D01*
X42164001Y-91779659D01*
X42203234Y-91776226D01*
X42399408Y-91759063D01*
X42627663Y-91697903D01*
X42841830Y-91598035D01*
X43035401Y-91462495D01*
X43037077Y-91460819D01*
X43037995Y-91460317D01*
X43039544Y-91459018D01*
X43039805Y-91459329D01*
X43098400Y-91427334D01*
X43124758Y-91424500D01*
X48599951Y-91424500D01*
X48666990Y-91444185D01*
X48687632Y-91460819D01*
X48690858Y-91464045D01*
X48690861Y-91464047D01*
X48877266Y-91594568D01*
X49083504Y-91690739D01*
X49083509Y-91690740D01*
X49083511Y-91690741D01*
X49110248Y-91697905D01*
X49303308Y-91749635D01*
X49465230Y-91763801D01*
X49529998Y-91769468D01*
X49530000Y-91769468D01*
X49530002Y-91769468D01*
X49586673Y-91764509D01*
X49756692Y-91749635D01*
X49976496Y-91690739D01*
X50182734Y-91594568D01*
X50336465Y-91486924D01*
X50402671Y-91464598D01*
X50407588Y-91464500D01*
X56216217Y-91464500D01*
X56283256Y-91484185D01*
X56303898Y-91500819D01*
X60369449Y-95566370D01*
X60371642Y-95568619D01*
X60431941Y-95632053D01*
X60433387Y-95633059D01*
X60450234Y-95647155D01*
X60704685Y-95901606D01*
X60939181Y-96136101D01*
X60972666Y-96197424D01*
X60975500Y-96223782D01*
X60975500Y-112406410D01*
X60955815Y-112473449D01*
X60953076Y-112477532D01*
X60845431Y-112631267D01*
X60749261Y-112837502D01*
X60749258Y-112837511D01*
X60690366Y-113057302D01*
X60690364Y-113057313D01*
X60670532Y-113283998D01*
X60670532Y-113284001D01*
X60690364Y-113510686D01*
X60690366Y-113510697D01*
X60749258Y-113730488D01*
X60749261Y-113730497D01*
X60812922Y-113867016D01*
X60845432Y-113936734D01*
X60934855Y-114064445D01*
X60953075Y-114090465D01*
X60975402Y-114156671D01*
X60975500Y-114161588D01*
X60975500Y-115301721D01*
X60975460Y-115304861D01*
X60973243Y-115392362D01*
X60973243Y-115392371D01*
X60983648Y-115450420D01*
X60984956Y-115459748D01*
X60990925Y-115518430D01*
X60990927Y-115518444D01*
X61000033Y-115547468D01*
X61003772Y-115562701D01*
X61009142Y-115592653D01*
X61009142Y-115592655D01*
X61031020Y-115647424D01*
X61034177Y-115656292D01*
X61051841Y-115712588D01*
X61051842Y-115712589D01*
X61051844Y-115712595D01*
X61066603Y-115739185D01*
X61073336Y-115753361D01*
X61084622Y-115781614D01*
X61084627Y-115781624D01*
X61117080Y-115830866D01*
X61121962Y-115838923D01*
X61150588Y-115890498D01*
X61150589Y-115890500D01*
X61150591Y-115890502D01*
X61170410Y-115913588D01*
X61179855Y-115926115D01*
X61196599Y-115951521D01*
X61238299Y-115993220D01*
X61244704Y-116000131D01*
X61283131Y-116044892D01*
X61283134Y-116044895D01*
X61307187Y-116063513D01*
X61318968Y-116073889D01*
X63036449Y-117791370D01*
X63038642Y-117793619D01*
X63098938Y-117857050D01*
X63098941Y-117857053D01*
X63147348Y-117890746D01*
X63154869Y-117896417D01*
X63200587Y-117933694D01*
X63200590Y-117933695D01*
X63200593Y-117933698D01*
X63227565Y-117947786D01*
X63240982Y-117955916D01*
X63265951Y-117973295D01*
X63320163Y-117996559D01*
X63328663Y-118000595D01*
X63380951Y-118027909D01*
X63410199Y-118036277D01*
X63424975Y-118041538D01*
X63452942Y-118053540D01*
X63452945Y-118053540D01*
X63452946Y-118053541D01*
X63510713Y-118065412D01*
X63519866Y-118067658D01*
X63576582Y-118083887D01*
X63606914Y-118086196D01*
X63622463Y-118088377D01*
X63652255Y-118094500D01*
X63652259Y-118094500D01*
X63711242Y-118094500D01*
X63720656Y-118094857D01*
X63729010Y-118095494D01*
X63779476Y-118099337D01*
X63779476Y-118099336D01*
X63779477Y-118099337D01*
X63809652Y-118095493D01*
X63825319Y-118094500D01*
X69384217Y-118094500D01*
X69451256Y-118114185D01*
X69471898Y-118130819D01*
X69874300Y-118533221D01*
X69880704Y-118540131D01*
X69919131Y-118584892D01*
X69919134Y-118584895D01*
X69926630Y-118590697D01*
X69943187Y-118603513D01*
X69954968Y-118613889D01*
X72369181Y-121028102D01*
X72402666Y-121089425D01*
X72405500Y-121115783D01*
X72405500Y-127341479D01*
X72385815Y-127408518D01*
X72362034Y-127435768D01*
X72338157Y-127456161D01*
X72230290Y-127582458D01*
X72171783Y-127620651D01*
X72101916Y-127621150D01*
X72042869Y-127583796D01*
X72041710Y-127582458D01*
X71933841Y-127456159D01*
X71799568Y-127341479D01*
X71753644Y-127302256D01*
X71753642Y-127302255D01*
X71551596Y-127178441D01*
X71332666Y-127087758D01*
X71332668Y-127087758D01*
X71332664Y-127087757D01*
X71332660Y-127087756D01*
X71332654Y-127087754D01*
X71102243Y-127032438D01*
X70866000Y-127013845D01*
X70629756Y-127032438D01*
X70399345Y-127087754D01*
X70399333Y-127087758D01*
X70180403Y-127178441D01*
X69978357Y-127302255D01*
X69978355Y-127302256D01*
X69798159Y-127456159D01*
X69644256Y-127636355D01*
X69644255Y-127636357D01*
X69520441Y-127838403D01*
X69429758Y-128057333D01*
X69429754Y-128057345D01*
X69374438Y-128287756D01*
X69355845Y-128524000D01*
X69374438Y-128760243D01*
X69429754Y-128990654D01*
X69429758Y-128990666D01*
X69520441Y-129209596D01*
X69644255Y-129411642D01*
X69644256Y-129411644D01*
X69689147Y-129464204D01*
X69798159Y-129591841D01*
X69890531Y-129670734D01*
X69978350Y-129745739D01*
X69978353Y-129745741D01*
X70020112Y-129771331D01*
X70056288Y-129793499D01*
X70103165Y-129845310D01*
X70115500Y-129899227D01*
X70115500Y-134302294D01*
X70114191Y-134320263D01*
X70110710Y-134344025D01*
X70114793Y-134390689D01*
X70114946Y-134392437D01*
X70115028Y-134393368D01*
X70115500Y-134404176D01*
X70115500Y-134409711D01*
X70119098Y-134440495D01*
X70119464Y-134444083D01*
X70126000Y-134518791D01*
X70127461Y-134525867D01*
X70127403Y-134525878D01*
X70129034Y-134533237D01*
X70129092Y-134533224D01*
X70130757Y-134540249D01*
X70130758Y-134540254D01*
X70130759Y-134540255D01*
X70134020Y-134549216D01*
X70156400Y-134610705D01*
X70157582Y-134614107D01*
X70181182Y-134685326D01*
X70184236Y-134691874D01*
X70184182Y-134691898D01*
X70187470Y-134698688D01*
X70187521Y-134698663D01*
X70190761Y-134705114D01*
X70231979Y-134767784D01*
X70233889Y-134770782D01*
X70258701Y-134811007D01*
X70273289Y-134834658D01*
X70277766Y-134840319D01*
X70277719Y-134840356D01*
X70282482Y-134846202D01*
X70282528Y-134846164D01*
X70287173Y-134851699D01*
X70341707Y-134903149D01*
X70344295Y-134905663D01*
X76424270Y-140985638D01*
X76436051Y-140999270D01*
X76450388Y-141018528D01*
X76450389Y-141018529D01*
X76450390Y-141018530D01*
X76457253Y-141024289D01*
X76488337Y-141050372D01*
X76496310Y-141057679D01*
X76500217Y-141061586D01*
X76500223Y-141061591D01*
X76524537Y-141080816D01*
X76527318Y-141083080D01*
X76554956Y-141106271D01*
X76584789Y-141131305D01*
X76590818Y-141135270D01*
X76590785Y-141135319D01*
X76597147Y-141139372D01*
X76597179Y-141139321D01*
X76603319Y-141143108D01*
X76603323Y-141143111D01*
X76641977Y-141161135D01*
X76671320Y-141174819D01*
X76674566Y-141176391D01*
X76741562Y-141210038D01*
X76748357Y-141212511D01*
X76748336Y-141212567D01*
X76755457Y-141215043D01*
X76755476Y-141214986D01*
X76762319Y-141217253D01*
X76762327Y-141217257D01*
X76835895Y-141232447D01*
X76839228Y-141233186D01*
X76912279Y-141250500D01*
X76912281Y-141250500D01*
X76912285Y-141250501D01*
X76919453Y-141251339D01*
X76919446Y-141251398D01*
X76926944Y-141252164D01*
X76926950Y-141252105D01*
X76934139Y-141252734D01*
X76934143Y-141252733D01*
X76934144Y-141252734D01*
X77009130Y-141250552D01*
X77012737Y-141250500D01*
X105308295Y-141250500D01*
X105326265Y-141251809D01*
X105350023Y-141255289D01*
X105399369Y-141250971D01*
X105410176Y-141250500D01*
X105415704Y-141250500D01*
X105415709Y-141250500D01*
X105446556Y-141246893D01*
X105450030Y-141246539D01*
X105524797Y-141239999D01*
X105524805Y-141239996D01*
X105531866Y-141238539D01*
X105531878Y-141238598D01*
X105539243Y-141236965D01*
X105539229Y-141236906D01*
X105546249Y-141235241D01*
X105546255Y-141235241D01*
X105616779Y-141209572D01*
X105620117Y-141208412D01*
X105691334Y-141184814D01*
X105691342Y-141184808D01*
X105697882Y-141181760D01*
X105697908Y-141181816D01*
X105704690Y-141178532D01*
X105704663Y-141178478D01*
X105711113Y-141175238D01*
X105711117Y-141175237D01*
X105773837Y-141133984D01*
X105776732Y-141132140D01*
X105840656Y-141092712D01*
X105840662Y-141092705D01*
X105846325Y-141088229D01*
X105846362Y-141088277D01*
X105852204Y-141083518D01*
X105852164Y-141083471D01*
X105857686Y-141078835D01*
X105857696Y-141078830D01*
X105909185Y-141024253D01*
X105911632Y-141021734D01*
X112223638Y-134709727D01*
X112237267Y-134697950D01*
X112241587Y-134694734D01*
X112256530Y-134683610D01*
X112288366Y-134645669D01*
X112295683Y-134637684D01*
X112296992Y-134636373D01*
X112299591Y-134633776D01*
X112318853Y-134609413D01*
X112321076Y-134606686D01*
X112369300Y-134549216D01*
X112369302Y-134549214D01*
X112369304Y-134549209D01*
X112373274Y-134543175D01*
X112373325Y-134543208D01*
X112377369Y-134536860D01*
X112377317Y-134536828D01*
X112381106Y-134530682D01*
X112381111Y-134530677D01*
X112412832Y-134462647D01*
X112414358Y-134459496D01*
X112448040Y-134392433D01*
X112448041Y-134392428D01*
X112450508Y-134385650D01*
X112450566Y-134385671D01*
X112453043Y-134378544D01*
X112452986Y-134378526D01*
X112455256Y-134371676D01*
X112460965Y-134344025D01*
X112470439Y-134298139D01*
X112471187Y-134294762D01*
X112488500Y-134221721D01*
X112488500Y-134221717D01*
X112488501Y-134221713D01*
X112489339Y-134214548D01*
X112489398Y-134214554D01*
X112490164Y-134207054D01*
X112490105Y-134207049D01*
X112490734Y-134199859D01*
X112488552Y-134124869D01*
X112488500Y-134121262D01*
X112488500Y-133604005D01*
X116482556Y-133604005D01*
X116502310Y-133918004D01*
X116502311Y-133918011D01*
X116513383Y-133976053D01*
X116560245Y-134221713D01*
X116561270Y-134227083D01*
X116658497Y-134526316D01*
X116658499Y-134526321D01*
X116792461Y-134811003D01*
X116792464Y-134811009D01*
X116961051Y-135076661D01*
X116961054Y-135076665D01*
X117161606Y-135319090D01*
X117161608Y-135319092D01*
X117390968Y-135534476D01*
X117390978Y-135534484D01*
X117645504Y-135719408D01*
X117645509Y-135719410D01*
X117645516Y-135719416D01*
X117921234Y-135870994D01*
X117921239Y-135870996D01*
X117921241Y-135870997D01*
X117921242Y-135870998D01*
X118213771Y-135986818D01*
X118213774Y-135986819D01*
X118518523Y-136065065D01*
X118518527Y-136065066D01*
X118584010Y-136073338D01*
X118830670Y-136104499D01*
X118830679Y-136104499D01*
X118830682Y-136104500D01*
X118830684Y-136104500D01*
X119145316Y-136104500D01*
X119145318Y-136104500D01*
X119145321Y-136104499D01*
X119145329Y-136104499D01*
X119331593Y-136080968D01*
X119457473Y-136065066D01*
X119762225Y-135986819D01*
X119762228Y-135986818D01*
X120054757Y-135870998D01*
X120054758Y-135870997D01*
X120054756Y-135870997D01*
X120054766Y-135870994D01*
X120330484Y-135719416D01*
X120585030Y-135534478D01*
X120814390Y-135319094D01*
X121014947Y-135076663D01*
X121183537Y-134811007D01*
X121317503Y-134526315D01*
X121414731Y-134227079D01*
X121473688Y-133918015D01*
X121478671Y-133838809D01*
X121493444Y-133604005D01*
X121493444Y-133603994D01*
X121473689Y-133289995D01*
X121473688Y-133289988D01*
X121473688Y-133289985D01*
X121414731Y-132980921D01*
X121317503Y-132681685D01*
X121315571Y-132677580D01*
X121220992Y-132476589D01*
X121183537Y-132396993D01*
X121030829Y-132156363D01*
X121014948Y-132131338D01*
X121014945Y-132131334D01*
X120814393Y-131888909D01*
X120814391Y-131888907D01*
X120585031Y-131673523D01*
X120585021Y-131673515D01*
X120330495Y-131488591D01*
X120330488Y-131488586D01*
X120330484Y-131488584D01*
X120054766Y-131337006D01*
X120054763Y-131337004D01*
X120054758Y-131337002D01*
X120054757Y-131337001D01*
X119762228Y-131221181D01*
X119762225Y-131221180D01*
X119457476Y-131142934D01*
X119457463Y-131142932D01*
X119145329Y-131103500D01*
X119145318Y-131103500D01*
X118830682Y-131103500D01*
X118830670Y-131103500D01*
X118518536Y-131142932D01*
X118518523Y-131142934D01*
X118213774Y-131221180D01*
X118213771Y-131221181D01*
X117921242Y-131337001D01*
X117921241Y-131337002D01*
X117645516Y-131488584D01*
X117645504Y-131488591D01*
X117390978Y-131673515D01*
X117390968Y-131673523D01*
X117161608Y-131888907D01*
X117161606Y-131888909D01*
X116961054Y-132131334D01*
X116961051Y-132131338D01*
X116792464Y-132396990D01*
X116792461Y-132396996D01*
X116658499Y-132681678D01*
X116658497Y-132681683D01*
X116561270Y-132980916D01*
X116502311Y-133289988D01*
X116502310Y-133289995D01*
X116482556Y-133603994D01*
X116482556Y-133604005D01*
X112488500Y-133604005D01*
X112488500Y-131633499D01*
X112508185Y-131566460D01*
X112560989Y-131520705D01*
X112612500Y-131509499D01*
X113022871Y-131509499D01*
X113022872Y-131509499D01*
X113082483Y-131503091D01*
X113217331Y-131452796D01*
X113332546Y-131366546D01*
X113418796Y-131251331D01*
X113469091Y-131116483D01*
X113475500Y-131056873D01*
X113475499Y-128531128D01*
X113469091Y-128471517D01*
X113460695Y-128449007D01*
X113418797Y-128336671D01*
X113418793Y-128336664D01*
X113332547Y-128221455D01*
X113332544Y-128221452D01*
X113217335Y-128135206D01*
X113217328Y-128135202D01*
X113082482Y-128084908D01*
X113082483Y-128084908D01*
X113022883Y-128078501D01*
X113022881Y-128078500D01*
X113022873Y-128078500D01*
X113022865Y-128078500D01*
X112634500Y-128078500D01*
X112567461Y-128058815D01*
X112521706Y-128006011D01*
X112510500Y-127954500D01*
X112510500Y-122282230D01*
X112530185Y-122215191D01*
X112546819Y-122194549D01*
X115573549Y-119167819D01*
X115634872Y-119134334D01*
X115661230Y-119131500D01*
X123853240Y-119131500D01*
X123920279Y-119151185D01*
X123954814Y-119184376D01*
X123967952Y-119203139D01*
X124128858Y-119364045D01*
X124128861Y-119364047D01*
X124315266Y-119494568D01*
X124521504Y-119590739D01*
X124741308Y-119649635D01*
X124903230Y-119663801D01*
X124967998Y-119669468D01*
X124968000Y-119669468D01*
X124968002Y-119669468D01*
X125024673Y-119664509D01*
X125194692Y-119649635D01*
X125414496Y-119590739D01*
X125620734Y-119494568D01*
X125807139Y-119364047D01*
X125968047Y-119203139D01*
X126098568Y-119016734D01*
X126194739Y-118810496D01*
X126253635Y-118590692D01*
X126271357Y-118388124D01*
X126273468Y-118364001D01*
X126273468Y-118363998D01*
X126264984Y-118267023D01*
X126253635Y-118137308D01*
X126194739Y-117917504D01*
X126098568Y-117711266D01*
X125968047Y-117524861D01*
X125968045Y-117524858D01*
X125807141Y-117363954D01*
X125620734Y-117233432D01*
X125620732Y-117233431D01*
X125414497Y-117137261D01*
X125414488Y-117137258D01*
X125194697Y-117078366D01*
X125194693Y-117078365D01*
X125194692Y-117078365D01*
X125194691Y-117078364D01*
X125194686Y-117078364D01*
X124968002Y-117058532D01*
X124967998Y-117058532D01*
X124741313Y-117078364D01*
X124741302Y-117078366D01*
X124521511Y-117137258D01*
X124521502Y-117137261D01*
X124315267Y-117233431D01*
X124315265Y-117233432D01*
X124128858Y-117363954D01*
X123967954Y-117524858D01*
X123931009Y-117577623D01*
X123876433Y-117621248D01*
X123829434Y-117630500D01*
X115362705Y-117630500D01*
X115344735Y-117629191D01*
X115320972Y-117625710D01*
X115273843Y-117629834D01*
X115271630Y-117630028D01*
X115260824Y-117630500D01*
X115255284Y-117630500D01*
X115224501Y-117634098D01*
X115220916Y-117634464D01*
X115146199Y-117641001D01*
X115139132Y-117642460D01*
X115139120Y-117642404D01*
X115131763Y-117644035D01*
X115131777Y-117644092D01*
X115124740Y-117645760D01*
X115054231Y-117671421D01*
X115050854Y-117672595D01*
X115011848Y-117685521D01*
X114979668Y-117696185D01*
X114973126Y-117699236D01*
X114973101Y-117699183D01*
X114966308Y-117702471D01*
X114966334Y-117702523D01*
X114959880Y-117705764D01*
X114897221Y-117746975D01*
X114894181Y-117748912D01*
X114830348Y-117788285D01*
X114824683Y-117792765D01*
X114824647Y-117792719D01*
X114818798Y-117797484D01*
X114818835Y-117797528D01*
X114813310Y-117802164D01*
X114761832Y-117856726D01*
X114759320Y-117859311D01*
X111274358Y-121344272D01*
X111260729Y-121356051D01*
X111241469Y-121370390D01*
X111209632Y-121408331D01*
X111202346Y-121416284D01*
X111198407Y-121420224D01*
X111179176Y-121444545D01*
X111176902Y-121447337D01*
X111128694Y-121504790D01*
X111124729Y-121510819D01*
X111124682Y-121510788D01*
X111120630Y-121517147D01*
X111120679Y-121517177D01*
X111116889Y-121523321D01*
X111085192Y-121591294D01*
X111083623Y-121594536D01*
X111049957Y-121661572D01*
X111047488Y-121668357D01*
X111047432Y-121668336D01*
X111044960Y-121675450D01*
X111045015Y-121675469D01*
X111042743Y-121682325D01*
X111027573Y-121755788D01*
X111026793Y-121759304D01*
X111009499Y-121832279D01*
X111008661Y-121839454D01*
X111008601Y-121839447D01*
X111007835Y-121846945D01*
X111007895Y-121846951D01*
X111007265Y-121854140D01*
X111009448Y-121929128D01*
X111009500Y-121932735D01*
X111009500Y-127954500D01*
X110989815Y-128021539D01*
X110937011Y-128067294D01*
X110885500Y-128078500D01*
X110497129Y-128078500D01*
X110497123Y-128078501D01*
X110437516Y-128084908D01*
X110302671Y-128135202D01*
X110302664Y-128135206D01*
X110187455Y-128221452D01*
X110187452Y-128221455D01*
X110101206Y-128336664D01*
X110101202Y-128336671D01*
X110050908Y-128471517D01*
X110045266Y-128524000D01*
X110044501Y-128531123D01*
X110044500Y-128531135D01*
X110044500Y-131056870D01*
X110044501Y-131056876D01*
X110050908Y-131116483D01*
X110101202Y-131251328D01*
X110101206Y-131251335D01*
X110187452Y-131366544D01*
X110187455Y-131366547D01*
X110302664Y-131452793D01*
X110302671Y-131452797D01*
X110347618Y-131469561D01*
X110437517Y-131503091D01*
X110497127Y-131509500D01*
X110863500Y-131509499D01*
X110930539Y-131529183D01*
X110976294Y-131581987D01*
X110987500Y-131633499D01*
X110987500Y-133771770D01*
X110967815Y-133838809D01*
X110951181Y-133859451D01*
X105097451Y-139713181D01*
X105036128Y-139746666D01*
X105009770Y-139749500D01*
X77362230Y-139749500D01*
X77295191Y-139729815D01*
X77274549Y-139713181D01*
X71652819Y-134091451D01*
X71619334Y-134030128D01*
X71616500Y-134003770D01*
X71616500Y-129899227D01*
X71636185Y-129832188D01*
X71675712Y-129793499D01*
X71753647Y-129745741D01*
X71933841Y-129591841D01*
X72041710Y-129465541D01*
X72100217Y-129427349D01*
X72170084Y-129426850D01*
X72229131Y-129464204D01*
X72230262Y-129465510D01*
X72338159Y-129591841D01*
X72362030Y-129612229D01*
X72400224Y-129670734D01*
X72405500Y-129706520D01*
X72405500Y-132065721D01*
X72405460Y-132068861D01*
X72403243Y-132156362D01*
X72403243Y-132156371D01*
X72413648Y-132214420D01*
X72414956Y-132223748D01*
X72420925Y-132282430D01*
X72420927Y-132282444D01*
X72430033Y-132311468D01*
X72433772Y-132326701D01*
X72439142Y-132356653D01*
X72439142Y-132356655D01*
X72461020Y-132411424D01*
X72464177Y-132420292D01*
X72481841Y-132476588D01*
X72481842Y-132476589D01*
X72481844Y-132476595D01*
X72496603Y-132503185D01*
X72503336Y-132517361D01*
X72514622Y-132545614D01*
X72514627Y-132545624D01*
X72547080Y-132594866D01*
X72551962Y-132602923D01*
X72580588Y-132654498D01*
X72580589Y-132654500D01*
X72580591Y-132654502D01*
X72600410Y-132677588D01*
X72609855Y-132690115D01*
X72626599Y-132715521D01*
X72668299Y-132757220D01*
X72674704Y-132764131D01*
X72713131Y-132808892D01*
X72713134Y-132808895D01*
X72737187Y-132827513D01*
X72748968Y-132837889D01*
X78408449Y-138497370D01*
X78410642Y-138499619D01*
X78470938Y-138563050D01*
X78470941Y-138563053D01*
X78519348Y-138596746D01*
X78526869Y-138602417D01*
X78572587Y-138639694D01*
X78572590Y-138639695D01*
X78572593Y-138639698D01*
X78599565Y-138653786D01*
X78612980Y-138661915D01*
X78637951Y-138679295D01*
X78666105Y-138691377D01*
X78692163Y-138702559D01*
X78700663Y-138706595D01*
X78752951Y-138733909D01*
X78782199Y-138742277D01*
X78796975Y-138747538D01*
X78824942Y-138759540D01*
X78824945Y-138759540D01*
X78824946Y-138759541D01*
X78882713Y-138771412D01*
X78891866Y-138773658D01*
X78948582Y-138789887D01*
X78978914Y-138792196D01*
X78994463Y-138794377D01*
X79024255Y-138800500D01*
X79024259Y-138800500D01*
X79083242Y-138800500D01*
X79092656Y-138800857D01*
X79101010Y-138801494D01*
X79151476Y-138805337D01*
X79151476Y-138805336D01*
X79151477Y-138805337D01*
X79181652Y-138801493D01*
X79197319Y-138800500D01*
X101961721Y-138800500D01*
X101964863Y-138800540D01*
X102052358Y-138802757D01*
X102052358Y-138802756D01*
X102052363Y-138802757D01*
X102110425Y-138792349D01*
X102119754Y-138791041D01*
X102178438Y-138785074D01*
X102207471Y-138775964D01*
X102222700Y-138772226D01*
X102252653Y-138766858D01*
X102252657Y-138766856D01*
X102252659Y-138766856D01*
X102307423Y-138744980D01*
X102316292Y-138741821D01*
X102372588Y-138724159D01*
X102399200Y-138709387D01*
X102413362Y-138702662D01*
X102441617Y-138691377D01*
X102490879Y-138658909D01*
X102498910Y-138654043D01*
X102550502Y-138625409D01*
X102550509Y-138625402D01*
X102550512Y-138625401D01*
X102573583Y-138605594D01*
X102586125Y-138596137D01*
X102611519Y-138579402D01*
X102653226Y-138537694D01*
X102660138Y-138531288D01*
X102704895Y-138492866D01*
X102723524Y-138468798D01*
X102733884Y-138457035D01*
X106985389Y-134205529D01*
X106987558Y-134203414D01*
X107051053Y-134143059D01*
X107084752Y-134094641D01*
X107090428Y-134087113D01*
X107127698Y-134041407D01*
X107141782Y-134014444D01*
X107149919Y-134001013D01*
X107167292Y-133976053D01*
X107167295Y-133976049D01*
X107190563Y-133921825D01*
X107194582Y-133913361D01*
X107221909Y-133861049D01*
X107230278Y-133831797D01*
X107235538Y-133817023D01*
X107247540Y-133789058D01*
X107259415Y-133731268D01*
X107261649Y-133722162D01*
X107277887Y-133665418D01*
X107280197Y-133635077D01*
X107282376Y-133619535D01*
X107288500Y-133589741D01*
X107288500Y-133530758D01*
X107288858Y-133521342D01*
X107293337Y-133462527D01*
X107289493Y-133432339D01*
X107288500Y-133416675D01*
X107288500Y-131268682D01*
X107308185Y-131201643D01*
X107342649Y-131166228D01*
X107382596Y-131138993D01*
X107571076Y-130964108D01*
X107731387Y-130763085D01*
X107859946Y-130540415D01*
X107953881Y-130301070D01*
X108011096Y-130050399D01*
X108012662Y-130029499D01*
X108030310Y-129794004D01*
X108030310Y-129793995D01*
X108011097Y-129537610D01*
X108011097Y-129537608D01*
X108011096Y-129537604D01*
X108011096Y-129537601D01*
X107953881Y-129286930D01*
X107953880Y-129286929D01*
X107953880Y-129286926D01*
X107908415Y-129171083D01*
X107859946Y-129047585D01*
X107859945Y-129047584D01*
X107859946Y-129047584D01*
X107812889Y-128966081D01*
X107731387Y-128824915D01*
X107571076Y-128623892D01*
X107382596Y-128449007D01*
X107170155Y-128304168D01*
X107170147Y-128304163D01*
X106938502Y-128192610D01*
X106938504Y-128192610D01*
X106692813Y-128116824D01*
X106692809Y-128116823D01*
X106692805Y-128116822D01*
X106570508Y-128098388D01*
X106438564Y-128078500D01*
X106438559Y-128078500D01*
X106181441Y-128078500D01*
X106181435Y-128078500D01*
X106023101Y-128102366D01*
X105927195Y-128116822D01*
X105927192Y-128116823D01*
X105927186Y-128116824D01*
X105681496Y-128192610D01*
X105449852Y-128304163D01*
X105449844Y-128304168D01*
X105237406Y-128449005D01*
X105048926Y-128623889D01*
X105048923Y-128623892D01*
X104888613Y-128824915D01*
X104760054Y-129047584D01*
X104666119Y-129286926D01*
X104608902Y-129537608D01*
X104608902Y-129537610D01*
X104589690Y-129793995D01*
X104589690Y-129794004D01*
X104608902Y-130050389D01*
X104608902Y-130050391D01*
X104666119Y-130301073D01*
X104760054Y-130540415D01*
X104760053Y-130540415D01*
X104841556Y-130681581D01*
X104888613Y-130763085D01*
X105048924Y-130964108D01*
X105237404Y-131138993D01*
X105237412Y-131138998D01*
X105240813Y-131141711D01*
X105280953Y-131198899D01*
X105287500Y-131238658D01*
X105287500Y-133022218D01*
X105267815Y-133089257D01*
X105251181Y-133109899D01*
X101597899Y-136763181D01*
X101536576Y-136796666D01*
X101510218Y-136799500D01*
X79591782Y-136799500D01*
X79524743Y-136779815D01*
X79504101Y-136763181D01*
X76344925Y-133604005D01*
X91082556Y-133604005D01*
X91102310Y-133918004D01*
X91102311Y-133918011D01*
X91113383Y-133976053D01*
X91160245Y-134221713D01*
X91161270Y-134227083D01*
X91258497Y-134526316D01*
X91258499Y-134526321D01*
X91392461Y-134811003D01*
X91392464Y-134811009D01*
X91561051Y-135076661D01*
X91561054Y-135076665D01*
X91761606Y-135319090D01*
X91761608Y-135319092D01*
X91990968Y-135534476D01*
X91990978Y-135534484D01*
X92245504Y-135719408D01*
X92245509Y-135719410D01*
X92245516Y-135719416D01*
X92521234Y-135870994D01*
X92521239Y-135870996D01*
X92521241Y-135870997D01*
X92521242Y-135870998D01*
X92813771Y-135986818D01*
X92813774Y-135986819D01*
X93118523Y-136065065D01*
X93118527Y-136065066D01*
X93184010Y-136073338D01*
X93430670Y-136104499D01*
X93430679Y-136104499D01*
X93430682Y-136104500D01*
X93430684Y-136104500D01*
X93745316Y-136104500D01*
X93745318Y-136104500D01*
X93745321Y-136104499D01*
X93745329Y-136104499D01*
X93931593Y-136080968D01*
X94057473Y-136065066D01*
X94362225Y-135986819D01*
X94362228Y-135986818D01*
X94654757Y-135870998D01*
X94654758Y-135870997D01*
X94654756Y-135870997D01*
X94654766Y-135870994D01*
X94930484Y-135719416D01*
X95185030Y-135534478D01*
X95414390Y-135319094D01*
X95614947Y-135076663D01*
X95783537Y-134811007D01*
X95917503Y-134526315D01*
X96014731Y-134227079D01*
X96073688Y-133918015D01*
X96078671Y-133838809D01*
X96093444Y-133604005D01*
X96093444Y-133603994D01*
X96073689Y-133289995D01*
X96073688Y-133289988D01*
X96073688Y-133289985D01*
X96014731Y-132980921D01*
X95917503Y-132681685D01*
X95915571Y-132677580D01*
X95820992Y-132476589D01*
X95783537Y-132396993D01*
X95630829Y-132156363D01*
X95614948Y-132131338D01*
X95614945Y-132131334D01*
X95414393Y-131888909D01*
X95414391Y-131888907D01*
X95185031Y-131673523D01*
X95185021Y-131673515D01*
X94930495Y-131488591D01*
X94930488Y-131488586D01*
X94930484Y-131488584D01*
X94654766Y-131337006D01*
X94654763Y-131337004D01*
X94654758Y-131337002D01*
X94654757Y-131337001D01*
X94362228Y-131221181D01*
X94362225Y-131221180D01*
X94057476Y-131142934D01*
X94057463Y-131142932D01*
X93745329Y-131103500D01*
X93745318Y-131103500D01*
X93430682Y-131103500D01*
X93430670Y-131103500D01*
X93118536Y-131142932D01*
X93118523Y-131142934D01*
X92813774Y-131221180D01*
X92813771Y-131221181D01*
X92521242Y-131337001D01*
X92521241Y-131337002D01*
X92245516Y-131488584D01*
X92245504Y-131488591D01*
X91990978Y-131673515D01*
X91990968Y-131673523D01*
X91761608Y-131888907D01*
X91761606Y-131888909D01*
X91561054Y-132131334D01*
X91561051Y-132131338D01*
X91392464Y-132396990D01*
X91392461Y-132396996D01*
X91258499Y-132681678D01*
X91258497Y-132681683D01*
X91161270Y-132980916D01*
X91102311Y-133289988D01*
X91102310Y-133289995D01*
X91082556Y-133603994D01*
X91082556Y-133604005D01*
X76344925Y-133604005D01*
X74442819Y-131701899D01*
X74409334Y-131640576D01*
X74406500Y-131614218D01*
X74406500Y-130001800D01*
X74426185Y-129934761D01*
X74478989Y-129889006D01*
X74548147Y-129879062D01*
X74604810Y-129902533D01*
X74647861Y-129934761D01*
X74698668Y-129972795D01*
X74698671Y-129972797D01*
X74833517Y-130023091D01*
X74833516Y-130023091D01*
X74840444Y-130023835D01*
X74893127Y-130029500D01*
X76998872Y-130029499D01*
X77058483Y-130023091D01*
X77193331Y-129972796D01*
X77308546Y-129886546D01*
X77377823Y-129794004D01*
X99139690Y-129794004D01*
X99158902Y-130050389D01*
X99158902Y-130050391D01*
X99216119Y-130301073D01*
X99310054Y-130540415D01*
X99310053Y-130540415D01*
X99391556Y-130681581D01*
X99438613Y-130763085D01*
X99598924Y-130964108D01*
X99787404Y-131138993D01*
X99999845Y-131283832D01*
X99999847Y-131283833D01*
X99999852Y-131283836D01*
X100110252Y-131337001D01*
X100231496Y-131395389D01*
X100231497Y-131395389D01*
X100231500Y-131395391D01*
X100477195Y-131471178D01*
X100731441Y-131509500D01*
X100988559Y-131509500D01*
X101242805Y-131471178D01*
X101488500Y-131395391D01*
X101720155Y-131283832D01*
X101932596Y-131138993D01*
X102121076Y-130964108D01*
X102281387Y-130763085D01*
X102409946Y-130540415D01*
X102503881Y-130301070D01*
X102561096Y-130050399D01*
X102562662Y-130029499D01*
X102580310Y-129794004D01*
X102580310Y-129793995D01*
X102561097Y-129537610D01*
X102561097Y-129537608D01*
X102561096Y-129537604D01*
X102561096Y-129537601D01*
X102503881Y-129286930D01*
X102503880Y-129286929D01*
X102503880Y-129286926D01*
X102458415Y-129171083D01*
X102409946Y-129047585D01*
X102409945Y-129047584D01*
X102409946Y-129047584D01*
X102362889Y-128966081D01*
X102281387Y-128824915D01*
X102121076Y-128623892D01*
X102121073Y-128623889D01*
X101932597Y-128449007D01*
X101892648Y-128421771D01*
X101848346Y-128367742D01*
X101838500Y-128319317D01*
X101838500Y-115527783D01*
X101858185Y-115460744D01*
X101874819Y-115440102D01*
X106804102Y-110510819D01*
X106865425Y-110477334D01*
X106891783Y-110474500D01*
X115657136Y-110474500D01*
X115724175Y-110494185D01*
X115754081Y-110521185D01*
X115843950Y-110633877D01*
X116030783Y-110807232D01*
X116241366Y-110950805D01*
X116241371Y-110950807D01*
X116241372Y-110950808D01*
X116241373Y-110950809D01*
X116363328Y-111009538D01*
X116470992Y-111061387D01*
X116470993Y-111061387D01*
X116470996Y-111061389D01*
X116714542Y-111136513D01*
X116966565Y-111174500D01*
X117221435Y-111174500D01*
X117473458Y-111136513D01*
X117717004Y-111061389D01*
X117902433Y-110972091D01*
X117946626Y-110950809D01*
X117946626Y-110950808D01*
X117946634Y-110950805D01*
X118157217Y-110807232D01*
X118344050Y-110633877D01*
X118502959Y-110434612D01*
X118630393Y-110213888D01*
X118723508Y-109976637D01*
X118780222Y-109728157D01*
X118799268Y-109474000D01*
X118780222Y-109219843D01*
X118723508Y-108971363D01*
X118630393Y-108734112D01*
X118502959Y-108513388D01*
X118344050Y-108314123D01*
X118157217Y-108140768D01*
X117946634Y-107997195D01*
X117946630Y-107997193D01*
X117946627Y-107997191D01*
X117946626Y-107997190D01*
X117717006Y-107886612D01*
X117717008Y-107886612D01*
X117473466Y-107811489D01*
X117473462Y-107811488D01*
X117473458Y-107811487D01*
X117352231Y-107793214D01*
X117221440Y-107773500D01*
X117221435Y-107773500D01*
X116966565Y-107773500D01*
X116966559Y-107773500D01*
X116809609Y-107797157D01*
X116714542Y-107811487D01*
X116714539Y-107811488D01*
X116714533Y-107811489D01*
X116470992Y-107886612D01*
X116241373Y-107997190D01*
X116241372Y-107997191D01*
X116030782Y-108140768D01*
X115934711Y-108229909D01*
X115843950Y-108314123D01*
X115779986Y-108394332D01*
X115754083Y-108426813D01*
X115696894Y-108466953D01*
X115657136Y-108473500D01*
X106440237Y-108473500D01*
X106437097Y-108473460D01*
X106400912Y-108472543D01*
X106349636Y-108471244D01*
X106349635Y-108471244D01*
X106349626Y-108471244D01*
X106291582Y-108481648D01*
X106282253Y-108482957D01*
X106223564Y-108488925D01*
X106194527Y-108498035D01*
X106179288Y-108501775D01*
X106149349Y-108507141D01*
X106094567Y-108529022D01*
X106085698Y-108532179D01*
X106029414Y-108549840D01*
X106029410Y-108549842D01*
X106002811Y-108564605D01*
X105988638Y-108571336D01*
X105960382Y-108582623D01*
X105960378Y-108582625D01*
X105911122Y-108615086D01*
X105903069Y-108619965D01*
X105851501Y-108648588D01*
X105828413Y-108668408D01*
X105815887Y-108677852D01*
X105790485Y-108694594D01*
X105790478Y-108694600D01*
X105748774Y-108736303D01*
X105741869Y-108742703D01*
X105697102Y-108781136D01*
X105678480Y-108805193D01*
X105668108Y-108816969D01*
X100140646Y-114344432D01*
X100138399Y-114346624D01*
X100074946Y-114406942D01*
X100041245Y-114455361D01*
X100035574Y-114462882D01*
X99998302Y-114508592D01*
X99998298Y-114508598D01*
X99984209Y-114535568D01*
X99976082Y-114548983D01*
X99958702Y-114573955D01*
X99935438Y-114628165D01*
X99931398Y-114636672D01*
X99904090Y-114688951D01*
X99904090Y-114688952D01*
X99895720Y-114718201D01*
X99890459Y-114732979D01*
X99878459Y-114760943D01*
X99866588Y-114818711D01*
X99864342Y-114827860D01*
X99848113Y-114884577D01*
X99845802Y-114914926D01*
X99843622Y-114930466D01*
X99837500Y-114960258D01*
X99837500Y-115019240D01*
X99837142Y-115028656D01*
X99832662Y-115087474D01*
X99836506Y-115117649D01*
X99837500Y-115133317D01*
X99837500Y-128349341D01*
X99817815Y-128416380D01*
X99790814Y-128446287D01*
X99787405Y-128449005D01*
X99598926Y-128623889D01*
X99598923Y-128623892D01*
X99438613Y-128824915D01*
X99310054Y-129047584D01*
X99216119Y-129286926D01*
X99158902Y-129537608D01*
X99158902Y-129537610D01*
X99139690Y-129793995D01*
X99139690Y-129794004D01*
X77377823Y-129794004D01*
X77394796Y-129771331D01*
X77445091Y-129636483D01*
X77451500Y-129576873D01*
X77451499Y-127471128D01*
X77445091Y-127411517D01*
X77443972Y-127408518D01*
X77394797Y-127276671D01*
X77394793Y-127276664D01*
X77308547Y-127161455D01*
X77308544Y-127161452D01*
X77193335Y-127075206D01*
X77193328Y-127075202D01*
X77058482Y-127024908D01*
X77058483Y-127024908D01*
X76998883Y-127018501D01*
X76998881Y-127018500D01*
X76998873Y-127018500D01*
X76998865Y-127018500D01*
X76820500Y-127018500D01*
X76753461Y-126998815D01*
X76707706Y-126946011D01*
X76696500Y-126894500D01*
X76696500Y-125076229D01*
X76716185Y-125009190D01*
X76732814Y-124988553D01*
X80806805Y-120914561D01*
X80868126Y-120881078D01*
X80905288Y-120878716D01*
X81007665Y-120887672D01*
X81025999Y-120889277D01*
X81026000Y-120889277D01*
X81026002Y-120889277D01*
X81054254Y-120886805D01*
X81243977Y-120870207D01*
X81455330Y-120813575D01*
X81653639Y-120721102D01*
X81832877Y-120595598D01*
X81987598Y-120440877D01*
X82113102Y-120261639D01*
X82205575Y-120063330D01*
X82262207Y-119851977D01*
X82281277Y-119634000D01*
X82270716Y-119513290D01*
X82284482Y-119444792D01*
X82306560Y-119414806D01*
X84305638Y-117415727D01*
X84319267Y-117403950D01*
X84338530Y-117389610D01*
X84349230Y-117376857D01*
X84370366Y-117351669D01*
X84377683Y-117343684D01*
X84378992Y-117342373D01*
X84381591Y-117339776D01*
X84400853Y-117315413D01*
X84403076Y-117312686D01*
X84451300Y-117255216D01*
X84451302Y-117255214D01*
X84451304Y-117255209D01*
X84455274Y-117249175D01*
X84455325Y-117249208D01*
X84459372Y-117242856D01*
X84459320Y-117242824D01*
X84463108Y-117236680D01*
X84463111Y-117236677D01*
X84494821Y-117168673D01*
X84496362Y-117165488D01*
X84530040Y-117098433D01*
X84530043Y-117098417D01*
X84532509Y-117091646D01*
X84532567Y-117091667D01*
X84535043Y-117084546D01*
X84534986Y-117084527D01*
X84537255Y-117077678D01*
X84537255Y-117077676D01*
X84537257Y-117077673D01*
X84552435Y-117004157D01*
X84553200Y-117000708D01*
X84570500Y-116927721D01*
X84570500Y-116927719D01*
X84570501Y-116927715D01*
X84571339Y-116920548D01*
X84571398Y-116920554D01*
X84572164Y-116913054D01*
X84572105Y-116913049D01*
X84572734Y-116905859D01*
X84570552Y-116830869D01*
X84570500Y-116827262D01*
X84570500Y-111094976D01*
X84590185Y-111027937D01*
X84642989Y-110982182D01*
X84670135Y-110974736D01*
X84669932Y-110973876D01*
X84677479Y-110972092D01*
X84677481Y-110972091D01*
X84677483Y-110972091D01*
X84812331Y-110921796D01*
X84927546Y-110835546D01*
X85013796Y-110720331D01*
X85064091Y-110585483D01*
X85070500Y-110525873D01*
X85070499Y-110459860D01*
X85090183Y-110392824D01*
X85142986Y-110347068D01*
X85212144Y-110337124D01*
X85275700Y-110366148D01*
X85296073Y-110388738D01*
X85369909Y-110494185D01*
X85398402Y-110534877D01*
X85553123Y-110689598D01*
X85732361Y-110815102D01*
X85930670Y-110907575D01*
X86142023Y-110964207D01*
X86324926Y-110980208D01*
X86359998Y-110983277D01*
X86360000Y-110983277D01*
X86360002Y-110983277D01*
X86388254Y-110980805D01*
X86577977Y-110964207D01*
X86789330Y-110907575D01*
X86987639Y-110815102D01*
X87166877Y-110689598D01*
X87321598Y-110534877D01*
X87447102Y-110355639D01*
X87517618Y-110204414D01*
X87563790Y-110151977D01*
X87630984Y-110132825D01*
X87697865Y-110153041D01*
X87742381Y-110204414D01*
X87812898Y-110355639D01*
X87938402Y-110534877D01*
X88093123Y-110689598D01*
X88272361Y-110815102D01*
X88470670Y-110907575D01*
X88682023Y-110964207D01*
X88864926Y-110980208D01*
X88899998Y-110983277D01*
X88900000Y-110983277D01*
X88900002Y-110983277D01*
X88928254Y-110980805D01*
X89117977Y-110964207D01*
X89329330Y-110907575D01*
X89527639Y-110815102D01*
X89706877Y-110689598D01*
X89861598Y-110534877D01*
X89987102Y-110355639D01*
X90079575Y-110157330D01*
X90136207Y-109945977D01*
X90155277Y-109728000D01*
X90144716Y-109607290D01*
X90158482Y-109538792D01*
X90180560Y-109508806D01*
X92984548Y-106704819D01*
X93045871Y-106671334D01*
X93072229Y-106668500D01*
X98488295Y-106668500D01*
X98506265Y-106669809D01*
X98530023Y-106673289D01*
X98579369Y-106668971D01*
X98590176Y-106668500D01*
X98595704Y-106668500D01*
X98595709Y-106668500D01*
X98626556Y-106664893D01*
X98630030Y-106664539D01*
X98704797Y-106657999D01*
X98704805Y-106657996D01*
X98711866Y-106656539D01*
X98711878Y-106656598D01*
X98719243Y-106654965D01*
X98719229Y-106654906D01*
X98726249Y-106653241D01*
X98726255Y-106653241D01*
X98796779Y-106627572D01*
X98800117Y-106626412D01*
X98871334Y-106602814D01*
X98871342Y-106602808D01*
X98877882Y-106599760D01*
X98877908Y-106599816D01*
X98884690Y-106596532D01*
X98884663Y-106596478D01*
X98891113Y-106593238D01*
X98891117Y-106593237D01*
X98953837Y-106551984D01*
X98956732Y-106550140D01*
X99020656Y-106510712D01*
X99020662Y-106510705D01*
X99026325Y-106506229D01*
X99026362Y-106506277D01*
X99032204Y-106501518D01*
X99032164Y-106501471D01*
X99037686Y-106496835D01*
X99037696Y-106496830D01*
X99089185Y-106442253D01*
X99091632Y-106439734D01*
X101366548Y-104164819D01*
X101427871Y-104131334D01*
X101454229Y-104128500D01*
X106061337Y-104128500D01*
X106128376Y-104148185D01*
X106162912Y-104181377D01*
X106187954Y-104217141D01*
X106348858Y-104378045D01*
X106348861Y-104378047D01*
X106535266Y-104508568D01*
X106741504Y-104604739D01*
X106961308Y-104663635D01*
X107123230Y-104677801D01*
X107187998Y-104683468D01*
X107188000Y-104683468D01*
X107188002Y-104683468D01*
X107244673Y-104678509D01*
X107414692Y-104663635D01*
X107634496Y-104604739D01*
X107840734Y-104508568D01*
X108027139Y-104378047D01*
X108188047Y-104217139D01*
X108213088Y-104181377D01*
X108267665Y-104137752D01*
X108314663Y-104128500D01*
X109156295Y-104128500D01*
X109174265Y-104129809D01*
X109198023Y-104133289D01*
X109247369Y-104128971D01*
X109258176Y-104128500D01*
X109263704Y-104128500D01*
X109263709Y-104128500D01*
X109294556Y-104124893D01*
X109298030Y-104124539D01*
X109372797Y-104117999D01*
X109372805Y-104117996D01*
X109379866Y-104116539D01*
X109379878Y-104116598D01*
X109387243Y-104114965D01*
X109387229Y-104114906D01*
X109394249Y-104113241D01*
X109394255Y-104113241D01*
X109464779Y-104087572D01*
X109468117Y-104086412D01*
X109539334Y-104062814D01*
X109539342Y-104062808D01*
X109545882Y-104059760D01*
X109545908Y-104059816D01*
X109552690Y-104056532D01*
X109552663Y-104056478D01*
X109559113Y-104053238D01*
X109559117Y-104053237D01*
X109621837Y-104011984D01*
X109624732Y-104010140D01*
X109688656Y-103970712D01*
X109688662Y-103970705D01*
X109694325Y-103966229D01*
X109694363Y-103966277D01*
X109700200Y-103961522D01*
X109700161Y-103961475D01*
X109705691Y-103956833D01*
X109705696Y-103956830D01*
X109757184Y-103902254D01*
X109759631Y-103899735D01*
X110721642Y-102937724D01*
X110735271Y-102925947D01*
X110754530Y-102911610D01*
X110786360Y-102873676D01*
X110793677Y-102865691D01*
X110797587Y-102861781D01*
X110797587Y-102861780D01*
X110797591Y-102861777D01*
X110816833Y-102837438D01*
X110819069Y-102834693D01*
X110867302Y-102777214D01*
X110867307Y-102777203D01*
X110871274Y-102771175D01*
X110871325Y-102771208D01*
X110875372Y-102764856D01*
X110875320Y-102764824D01*
X110879108Y-102758680D01*
X110879111Y-102758677D01*
X110910821Y-102690673D01*
X110912362Y-102687488D01*
X110946040Y-102620433D01*
X110946043Y-102620417D01*
X110948509Y-102613646D01*
X110948567Y-102613667D01*
X110951043Y-102606546D01*
X110950986Y-102606528D01*
X110953256Y-102599677D01*
X110955524Y-102588692D01*
X110968447Y-102526102D01*
X110969179Y-102522798D01*
X110986500Y-102449721D01*
X110986500Y-102449712D01*
X110987338Y-102442548D01*
X110987398Y-102442555D01*
X110988164Y-102435055D01*
X110988105Y-102435050D01*
X110988734Y-102427860D01*
X110986552Y-102352870D01*
X110986500Y-102349263D01*
X110986500Y-93326228D01*
X111006185Y-93259189D01*
X111022815Y-93238551D01*
X111202446Y-93058919D01*
X111202456Y-93058912D01*
X111211503Y-93049864D01*
X111224204Y-93039518D01*
X111224164Y-93039471D01*
X111229686Y-93034835D01*
X111229696Y-93034830D01*
X111281185Y-92980253D01*
X111283632Y-92977734D01*
X114701548Y-89559819D01*
X114762871Y-89526334D01*
X114789229Y-89523500D01*
X122745295Y-89523500D01*
X122763265Y-89524809D01*
X122787023Y-89528289D01*
X122836369Y-89523971D01*
X122847176Y-89523500D01*
X122852704Y-89523500D01*
X122852709Y-89523500D01*
X122883556Y-89519893D01*
X122887030Y-89519539D01*
X122961797Y-89512999D01*
X122961805Y-89512996D01*
X122968866Y-89511539D01*
X122968878Y-89511598D01*
X122976243Y-89509965D01*
X122976229Y-89509906D01*
X122983249Y-89508241D01*
X122983255Y-89508241D01*
X123053779Y-89482572D01*
X123057117Y-89481412D01*
X123128334Y-89457814D01*
X123128342Y-89457808D01*
X123134882Y-89454760D01*
X123134908Y-89454816D01*
X123141690Y-89451532D01*
X123141663Y-89451478D01*
X123148113Y-89448238D01*
X123148117Y-89448237D01*
X123210837Y-89406984D01*
X123213732Y-89405140D01*
X123277656Y-89365712D01*
X123277662Y-89365705D01*
X123283325Y-89361229D01*
X123283362Y-89361277D01*
X123289204Y-89356518D01*
X123289164Y-89356471D01*
X123294686Y-89351835D01*
X123294696Y-89351830D01*
X123346185Y-89297253D01*
X123348632Y-89294734D01*
X125972652Y-86670714D01*
X126033973Y-86637231D01*
X126071135Y-86634869D01*
X126214366Y-86647400D01*
X126237999Y-86649468D01*
X126238000Y-86649468D01*
X126238002Y-86649468D01*
X126294673Y-86644509D01*
X126464692Y-86629635D01*
X126684496Y-86570739D01*
X126890734Y-86474568D01*
X127077139Y-86344047D01*
X127238047Y-86183139D01*
X127368568Y-85996734D01*
X127464739Y-85790496D01*
X127523635Y-85570692D01*
X127543468Y-85344000D01*
X127523635Y-85117308D01*
X127464739Y-84897504D01*
X127368568Y-84691266D01*
X127300112Y-84593500D01*
X127238048Y-84504862D01*
X127177891Y-84444705D01*
X127077139Y-84343953D01*
X127070562Y-84339348D01*
X127041375Y-84318910D01*
X126997751Y-84264332D01*
X126988500Y-84217336D01*
X126988500Y-83375705D01*
X126989809Y-83357735D01*
X126990129Y-83355547D01*
X126993289Y-83333977D01*
X126988972Y-83284630D01*
X126988500Y-83273822D01*
X126988500Y-83268296D01*
X126988500Y-83268291D01*
X126984901Y-83237509D01*
X126984536Y-83233929D01*
X126977999Y-83159201D01*
X126976539Y-83152129D01*
X126976597Y-83152116D01*
X126974965Y-83144757D01*
X126974906Y-83144772D01*
X126973241Y-83137751D01*
X126973241Y-83137745D01*
X126947569Y-83067212D01*
X126946421Y-83063909D01*
X126922814Y-82992666D01*
X126922810Y-82992659D01*
X126919760Y-82986118D01*
X126919815Y-82986091D01*
X126916533Y-82979313D01*
X126916480Y-82979340D01*
X126913235Y-82972880D01*
X126872025Y-82910223D01*
X126870086Y-82907181D01*
X126830710Y-82843342D01*
X126826234Y-82837682D01*
X126826281Y-82837644D01*
X126821519Y-82831799D01*
X126821474Y-82831838D01*
X126816831Y-82826305D01*
X126762273Y-82774832D01*
X126759686Y-82772319D01*
X125035729Y-81048361D01*
X125023949Y-81034730D01*
X125009610Y-81015470D01*
X124971651Y-80983619D01*
X124963686Y-80976318D01*
X124959780Y-80972411D01*
X124935443Y-80953168D01*
X124932647Y-80950890D01*
X124875214Y-80902698D01*
X124869180Y-80898729D01*
X124869212Y-80898680D01*
X124862853Y-80894628D01*
X124862822Y-80894679D01*
X124856680Y-80890891D01*
X124856678Y-80890890D01*
X124856677Y-80890889D01*
X124788688Y-80859184D01*
X124785447Y-80857615D01*
X124754530Y-80842088D01*
X124718433Y-80823960D01*
X124718431Y-80823959D01*
X124718430Y-80823959D01*
X124711645Y-80821489D01*
X124711665Y-80821433D01*
X124704549Y-80818959D01*
X124704531Y-80819015D01*
X124697674Y-80816743D01*
X124624210Y-80801573D01*
X124620693Y-80800793D01*
X124547718Y-80783499D01*
X124540547Y-80782661D01*
X124540553Y-80782601D01*
X124533055Y-80781835D01*
X124533050Y-80781895D01*
X124525860Y-80781265D01*
X124450870Y-80783448D01*
X124447263Y-80783500D01*
X116948229Y-80783500D01*
X116881190Y-80763815D01*
X116860548Y-80747181D01*
X113586819Y-77473451D01*
X113553334Y-77412128D01*
X113550500Y-77385770D01*
X113550500Y-71329499D01*
X113570185Y-71262460D01*
X113622989Y-71216705D01*
X113674500Y-71205499D01*
X113852871Y-71205499D01*
X113852872Y-71205499D01*
X113912483Y-71199091D01*
X114047331Y-71148796D01*
X114162546Y-71062546D01*
X114248796Y-70947331D01*
X114248798Y-70947323D01*
X114249855Y-70945391D01*
X114251423Y-70943822D01*
X114254112Y-70940231D01*
X114254628Y-70940617D01*
X114299259Y-70895984D01*
X114367532Y-70881131D01*
X114432997Y-70905546D01*
X114439222Y-70910526D01*
X114452353Y-70921741D01*
X114452358Y-70921744D01*
X114654403Y-71045558D01*
X114731807Y-71077619D01*
X114873336Y-71136243D01*
X115103760Y-71191562D01*
X115340000Y-71210155D01*
X115576240Y-71191562D01*
X115806664Y-71136243D01*
X116025596Y-71045558D01*
X116227647Y-70921741D01*
X116407841Y-70767841D01*
X116515710Y-70641541D01*
X116574217Y-70603349D01*
X116644084Y-70602850D01*
X116703131Y-70640204D01*
X116704262Y-70641510D01*
X116812159Y-70767841D01*
X116931901Y-70870110D01*
X116992355Y-70921743D01*
X116992357Y-70921744D01*
X117194403Y-71045558D01*
X117271807Y-71077619D01*
X117413336Y-71136243D01*
X117643760Y-71191562D01*
X117880000Y-71210155D01*
X118116240Y-71191562D01*
X118346664Y-71136243D01*
X118565596Y-71045558D01*
X118767647Y-70921741D01*
X118947841Y-70767841D01*
X119101741Y-70587647D01*
X119149500Y-70509710D01*
X119201312Y-70462835D01*
X119255228Y-70450500D01*
X138360501Y-70450500D01*
X138427540Y-70470185D01*
X138473295Y-70522989D01*
X138484501Y-70574500D01*
X138484501Y-70962876D01*
X138490908Y-71022483D01*
X138541202Y-71157328D01*
X138541206Y-71157335D01*
X138627452Y-71272544D01*
X138627455Y-71272547D01*
X138742664Y-71358793D01*
X138742671Y-71358797D01*
X138877517Y-71409091D01*
X138877516Y-71409091D01*
X138884444Y-71409835D01*
X138937127Y-71415500D01*
X140502769Y-71415499D01*
X140569808Y-71435184D01*
X140590450Y-71451818D01*
X147687181Y-78548549D01*
X147720666Y-78609872D01*
X147723500Y-78636230D01*
X147723500Y-87265336D01*
X147703815Y-87332375D01*
X147670625Y-87366910D01*
X147634863Y-87391951D01*
X147473951Y-87552862D01*
X147343432Y-87739265D01*
X147343431Y-87739267D01*
X147247261Y-87945502D01*
X147247258Y-87945511D01*
X147188366Y-88165302D01*
X147188364Y-88165313D01*
X147168532Y-88391998D01*
X147168532Y-88392001D01*
X147188364Y-88618686D01*
X147188366Y-88618697D01*
X147247258Y-88838488D01*
X147247261Y-88838497D01*
X147343431Y-89044732D01*
X147343432Y-89044734D01*
X147473954Y-89231141D01*
X147634858Y-89392045D01*
X147634861Y-89392047D01*
X147821266Y-89522568D01*
X148027504Y-89618739D01*
X148027509Y-89618740D01*
X148027511Y-89618741D01*
X148080415Y-89632916D01*
X148247308Y-89677635D01*
X148384549Y-89689642D01*
X148473998Y-89697468D01*
X148474000Y-89697468D01*
X148474002Y-89697468D01*
X148530673Y-89692509D01*
X148700692Y-89677635D01*
X148920496Y-89618739D01*
X149126734Y-89522568D01*
X149313139Y-89392047D01*
X149474047Y-89231139D01*
X149604568Y-89044734D01*
X149700739Y-88838496D01*
X149759635Y-88618692D01*
X149779468Y-88392000D01*
X149759635Y-88165308D01*
X149700739Y-87945504D01*
X149604568Y-87739266D01*
X149474047Y-87552861D01*
X149313139Y-87391953D01*
X149301781Y-87384000D01*
X149277375Y-87366910D01*
X149233751Y-87312332D01*
X149224500Y-87265336D01*
X149224500Y-78337705D01*
X149225809Y-78319735D01*
X149226129Y-78317547D01*
X149229289Y-78295977D01*
X149224972Y-78246630D01*
X149224500Y-78235822D01*
X149224500Y-78230296D01*
X149224500Y-78230291D01*
X149220901Y-78199509D01*
X149220536Y-78195929D01*
X149213999Y-78121201D01*
X149212539Y-78114129D01*
X149212597Y-78114116D01*
X149210965Y-78106757D01*
X149210906Y-78106772D01*
X149209242Y-78099753D01*
X149209241Y-78099745D01*
X149183591Y-78029273D01*
X149182408Y-78025868D01*
X149158813Y-77954663D01*
X149155764Y-77948124D01*
X149155817Y-77948099D01*
X149152531Y-77941311D01*
X149152479Y-77941338D01*
X149149236Y-77934882D01*
X149140927Y-77922249D01*
X149131468Y-77907867D01*
X149108025Y-77872222D01*
X149106088Y-77869181D01*
X149066714Y-77805347D01*
X149062234Y-77799681D01*
X149062280Y-77799643D01*
X149057519Y-77793799D01*
X149057474Y-77793838D01*
X149052831Y-77788305D01*
X148998290Y-77736848D01*
X148995703Y-77734335D01*
X141951818Y-70690450D01*
X141918333Y-70629127D01*
X141915499Y-70602769D01*
X141915499Y-68437129D01*
X141915498Y-68437123D01*
X141915497Y-68437116D01*
X141909091Y-68377517D01*
X141905167Y-68366997D01*
X141858797Y-68242671D01*
X141858793Y-68242664D01*
X141772547Y-68127455D01*
X141772544Y-68127452D01*
X141657335Y-68041206D01*
X141657328Y-68041202D01*
X141522482Y-67990908D01*
X141522483Y-67990908D01*
X141462883Y-67984501D01*
X141462881Y-67984500D01*
X141462873Y-67984500D01*
X141462864Y-67984500D01*
X138937129Y-67984500D01*
X138937123Y-67984501D01*
X138877516Y-67990908D01*
X138742671Y-68041202D01*
X138742664Y-68041206D01*
X138627455Y-68127452D01*
X138627452Y-68127455D01*
X138541206Y-68242664D01*
X138541202Y-68242671D01*
X138490908Y-68377517D01*
X138484836Y-68434000D01*
X138484501Y-68437123D01*
X138484500Y-68437135D01*
X138484500Y-68825500D01*
X138464815Y-68892539D01*
X138412011Y-68938294D01*
X138360500Y-68949500D01*
X119255228Y-68949500D01*
X119188189Y-68929815D01*
X119149500Y-68890289D01*
X119114393Y-68833000D01*
X119101741Y-68812353D01*
X118947841Y-68632159D01*
X118800548Y-68506359D01*
X118767644Y-68478256D01*
X118767642Y-68478255D01*
X118565596Y-68354441D01*
X118346666Y-68263758D01*
X118346668Y-68263758D01*
X118346664Y-68263757D01*
X118346660Y-68263756D01*
X118346654Y-68263754D01*
X118116243Y-68208438D01*
X117880000Y-68189845D01*
X117643756Y-68208438D01*
X117413345Y-68263754D01*
X117413333Y-68263758D01*
X117194403Y-68354441D01*
X116992357Y-68478255D01*
X116992355Y-68478256D01*
X116812159Y-68632159D01*
X116704290Y-68758458D01*
X116645783Y-68796651D01*
X116575916Y-68797150D01*
X116516869Y-68759796D01*
X116515710Y-68758458D01*
X116492186Y-68730915D01*
X116407841Y-68632159D01*
X116383965Y-68611767D01*
X116345775Y-68553260D01*
X116340500Y-68517479D01*
X116340500Y-66100005D01*
X130494556Y-66100005D01*
X130514310Y-66414004D01*
X130514311Y-66414011D01*
X130573270Y-66723083D01*
X130670497Y-67022316D01*
X130670499Y-67022321D01*
X130804461Y-67307003D01*
X130804464Y-67307009D01*
X130973051Y-67572661D01*
X130973054Y-67572665D01*
X131173606Y-67815090D01*
X131173608Y-67815092D01*
X131173610Y-67815094D01*
X131400909Y-68028542D01*
X131402968Y-68030476D01*
X131402978Y-68030484D01*
X131657504Y-68215408D01*
X131657509Y-68215410D01*
X131657516Y-68215416D01*
X131933234Y-68366994D01*
X131933239Y-68366996D01*
X131933241Y-68366997D01*
X131933242Y-68366998D01*
X132225771Y-68482818D01*
X132225774Y-68482819D01*
X132530523Y-68561065D01*
X132530527Y-68561066D01*
X132596010Y-68569338D01*
X132842670Y-68600499D01*
X132842679Y-68600499D01*
X132842682Y-68600500D01*
X132842684Y-68600500D01*
X133157316Y-68600500D01*
X133157318Y-68600500D01*
X133157321Y-68600499D01*
X133157329Y-68600499D01*
X133361991Y-68574644D01*
X133469473Y-68561066D01*
X133774225Y-68482819D01*
X133774228Y-68482818D01*
X134066757Y-68366998D01*
X134066758Y-68366997D01*
X134066756Y-68366997D01*
X134066766Y-68366994D01*
X134342484Y-68215416D01*
X134597030Y-68030478D01*
X134826390Y-67815094D01*
X135026947Y-67572663D01*
X135195537Y-67307007D01*
X135329503Y-67022315D01*
X135426731Y-66723079D01*
X135485688Y-66414015D01*
X135485689Y-66414004D01*
X135505444Y-66100005D01*
X135505444Y-66099994D01*
X135485689Y-65785995D01*
X135485688Y-65785988D01*
X135485688Y-65785985D01*
X135426731Y-65476921D01*
X135329503Y-65177685D01*
X135195537Y-64892993D01*
X135052954Y-64668317D01*
X135026948Y-64627338D01*
X135026945Y-64627334D01*
X134826393Y-64384909D01*
X134826391Y-64384907D01*
X134597031Y-64169523D01*
X134597021Y-64169515D01*
X134342495Y-63984591D01*
X134342488Y-63984586D01*
X134342484Y-63984584D01*
X134066766Y-63833006D01*
X134066763Y-63833004D01*
X134066758Y-63833002D01*
X134066757Y-63833001D01*
X133774228Y-63717181D01*
X133774225Y-63717180D01*
X133469476Y-63638934D01*
X133469463Y-63638932D01*
X133157329Y-63599500D01*
X133157318Y-63599500D01*
X132842682Y-63599500D01*
X132842670Y-63599500D01*
X132530536Y-63638932D01*
X132530523Y-63638934D01*
X132225774Y-63717180D01*
X132225771Y-63717181D01*
X131933242Y-63833001D01*
X131933241Y-63833002D01*
X131657516Y-63984584D01*
X131657504Y-63984591D01*
X131402978Y-64169515D01*
X131402968Y-64169523D01*
X131173608Y-64384907D01*
X131173606Y-64384909D01*
X130973054Y-64627334D01*
X130973051Y-64627338D01*
X130804464Y-64892990D01*
X130804461Y-64892996D01*
X130670499Y-65177678D01*
X130670497Y-65177683D01*
X130573270Y-65476916D01*
X130514311Y-65785988D01*
X130514310Y-65785995D01*
X130494556Y-66099994D01*
X130494556Y-66100005D01*
X116340500Y-66100005D01*
X116340500Y-64405781D01*
X116360185Y-64338742D01*
X116376815Y-64318104D01*
X117015308Y-63679610D01*
X117015313Y-63679607D01*
X117025516Y-63669402D01*
X117025519Y-63669402D01*
X117067251Y-63627668D01*
X117074122Y-63621301D01*
X117118895Y-63582866D01*
X117137520Y-63558802D01*
X117147880Y-63547039D01*
X119758102Y-60936819D01*
X119819425Y-60903334D01*
X119845783Y-60900500D01*
X135334217Y-60900500D01*
X135401256Y-60920185D01*
X135421898Y-60936819D01*
X143907271Y-69422191D01*
X143940756Y-69483514D01*
X143943243Y-69519138D01*
X143929690Y-69699995D01*
X143929690Y-69700004D01*
X143948902Y-69956389D01*
X143948902Y-69956391D01*
X144006119Y-70207073D01*
X144100054Y-70446415D01*
X144100053Y-70446415D01*
X144136598Y-70509711D01*
X144228613Y-70669085D01*
X144388924Y-70870108D01*
X144577404Y-71044993D01*
X144789845Y-71189832D01*
X144789847Y-71189833D01*
X144789852Y-71189836D01*
X144912882Y-71249083D01*
X145021496Y-71301389D01*
X145021497Y-71301389D01*
X145021500Y-71301391D01*
X145267195Y-71377178D01*
X145521441Y-71415500D01*
X145778559Y-71415500D01*
X146032805Y-71377178D01*
X146278500Y-71301391D01*
X146477624Y-71205498D01*
X146510147Y-71189836D01*
X146510148Y-71189835D01*
X146510155Y-71189832D01*
X146722596Y-71044993D01*
X146911076Y-70870108D01*
X147071387Y-70669085D01*
X147199946Y-70446415D01*
X147293881Y-70207070D01*
X147351096Y-69956399D01*
X147360294Y-69833657D01*
X147370310Y-69700004D01*
X149379690Y-69700004D01*
X149398902Y-69956389D01*
X149398902Y-69956391D01*
X149456119Y-70207073D01*
X149550054Y-70446415D01*
X149550053Y-70446415D01*
X149586598Y-70509711D01*
X149678613Y-70669085D01*
X149806456Y-70829395D01*
X149838923Y-70870107D01*
X149838926Y-70870110D01*
X149894571Y-70921741D01*
X150027404Y-71044993D01*
X150045348Y-71057227D01*
X150089652Y-71111252D01*
X150099500Y-71159682D01*
X150099500Y-89385721D01*
X150099460Y-89388861D01*
X150097243Y-89476362D01*
X150097243Y-89476371D01*
X150107648Y-89534420D01*
X150108956Y-89543748D01*
X150114925Y-89602430D01*
X150114927Y-89602444D01*
X150124033Y-89631468D01*
X150127772Y-89646701D01*
X150133142Y-89676653D01*
X150133142Y-89676655D01*
X150155020Y-89731424D01*
X150158177Y-89740292D01*
X150175841Y-89796588D01*
X150175842Y-89796589D01*
X150175844Y-89796595D01*
X150190603Y-89823185D01*
X150197336Y-89837361D01*
X150208622Y-89865614D01*
X150208627Y-89865624D01*
X150241080Y-89914866D01*
X150245962Y-89922923D01*
X150274588Y-89974498D01*
X150274589Y-89974500D01*
X150274591Y-89974502D01*
X150294410Y-89997588D01*
X150303855Y-90010115D01*
X150320599Y-90035521D01*
X150362299Y-90077220D01*
X150368704Y-90084131D01*
X150407130Y-90128892D01*
X150431193Y-90147518D01*
X150442972Y-90157893D01*
X156125362Y-95840283D01*
X156158847Y-95901606D01*
X156161334Y-95937229D01*
X156155732Y-96011994D01*
X156155732Y-96012004D01*
X156174777Y-96266154D01*
X156226481Y-96492686D01*
X156231492Y-96514637D01*
X156324607Y-96751888D01*
X156452041Y-96972612D01*
X156610950Y-97171877D01*
X156797783Y-97345232D01*
X157008366Y-97488805D01*
X157008371Y-97488807D01*
X157008372Y-97488808D01*
X157008373Y-97488809D01*
X157115238Y-97540272D01*
X157237992Y-97599387D01*
X157237993Y-97599387D01*
X157237996Y-97599389D01*
X157481542Y-97674513D01*
X157733565Y-97712500D01*
X157988435Y-97712500D01*
X158240458Y-97674513D01*
X158484004Y-97599389D01*
X158713634Y-97488805D01*
X158924217Y-97345232D01*
X159111050Y-97171877D01*
X159269959Y-96972612D01*
X159397393Y-96751888D01*
X159490508Y-96514637D01*
X159547222Y-96266157D01*
X159566268Y-96012000D01*
X159560487Y-95934861D01*
X159547222Y-95757845D01*
X159544133Y-95744312D01*
X159490508Y-95509363D01*
X159397393Y-95272112D01*
X159269959Y-95051388D01*
X159111050Y-94852123D01*
X158924217Y-94678768D01*
X158713634Y-94535195D01*
X158713630Y-94535193D01*
X158713627Y-94535191D01*
X158713626Y-94535190D01*
X158484006Y-94424612D01*
X158484008Y-94424612D01*
X158240466Y-94349489D01*
X158240462Y-94349488D01*
X158240458Y-94349487D01*
X158119231Y-94331214D01*
X157988440Y-94311500D01*
X157988435Y-94311500D01*
X157733565Y-94311500D01*
X157733559Y-94311500D01*
X157528551Y-94342401D01*
X157459326Y-94332928D01*
X157422388Y-94307467D01*
X152136819Y-89021898D01*
X152103334Y-88960575D01*
X152100500Y-88934217D01*
X152100500Y-71159682D01*
X152120185Y-71092643D01*
X152154650Y-71057228D01*
X152172596Y-71044993D01*
X152361076Y-70870108D01*
X152521387Y-70669085D01*
X152649946Y-70446415D01*
X152743881Y-70207070D01*
X152801096Y-69956399D01*
X152810294Y-69833657D01*
X152820310Y-69700004D01*
X152820310Y-69699995D01*
X152801097Y-69443610D01*
X152801097Y-69443608D01*
X152801096Y-69443604D01*
X152801096Y-69443601D01*
X152743881Y-69192930D01*
X152743880Y-69192929D01*
X152743880Y-69192926D01*
X152652129Y-68959148D01*
X152649946Y-68953585D01*
X152649945Y-68953584D01*
X152649946Y-68953584D01*
X152575996Y-68825500D01*
X152521387Y-68730915D01*
X152361076Y-68529892D01*
X152172596Y-68355007D01*
X151960155Y-68210168D01*
X151960147Y-68210163D01*
X151728502Y-68098610D01*
X151728504Y-68098610D01*
X151482813Y-68022824D01*
X151482809Y-68022823D01*
X151482805Y-68022822D01*
X151359596Y-68004251D01*
X151228564Y-67984500D01*
X151228559Y-67984500D01*
X150971441Y-67984500D01*
X150971435Y-67984500D01*
X150813101Y-68008366D01*
X150717195Y-68022822D01*
X150717192Y-68022823D01*
X150717186Y-68022824D01*
X150471496Y-68098610D01*
X150239852Y-68210163D01*
X150239844Y-68210168D01*
X150027406Y-68355005D01*
X149838926Y-68529889D01*
X149838923Y-68529892D01*
X149678613Y-68730915D01*
X149550054Y-68953584D01*
X149456119Y-69192926D01*
X149398902Y-69443608D01*
X149398902Y-69443610D01*
X149379690Y-69699995D01*
X149379690Y-69700004D01*
X147370310Y-69700004D01*
X147370310Y-69699995D01*
X147351097Y-69443610D01*
X147351097Y-69443608D01*
X147351096Y-69443604D01*
X147351096Y-69443601D01*
X147293881Y-69192930D01*
X147293880Y-69192929D01*
X147293880Y-69192926D01*
X147202129Y-68959148D01*
X147199946Y-68953585D01*
X147199945Y-68953584D01*
X147199946Y-68953584D01*
X147125996Y-68825500D01*
X147071387Y-68730915D01*
X146911076Y-68529892D01*
X146722596Y-68355007D01*
X146510155Y-68210168D01*
X146510147Y-68210163D01*
X146278502Y-68098610D01*
X146278504Y-68098610D01*
X146032813Y-68022824D01*
X146032809Y-68022823D01*
X146032805Y-68022822D01*
X145909596Y-68004251D01*
X145778564Y-67984500D01*
X145778559Y-67984500D01*
X145521441Y-67984500D01*
X145521433Y-67984500D01*
X145390400Y-68004251D01*
X145321176Y-67994778D01*
X145284238Y-67969317D01*
X143414926Y-66100005D01*
X155894556Y-66100005D01*
X155914310Y-66414004D01*
X155914311Y-66414011D01*
X155973270Y-66723083D01*
X156070497Y-67022316D01*
X156070499Y-67022321D01*
X156204461Y-67307003D01*
X156204464Y-67307009D01*
X156373051Y-67572661D01*
X156373054Y-67572665D01*
X156573606Y-67815090D01*
X156573608Y-67815092D01*
X156573610Y-67815094D01*
X156800909Y-68028542D01*
X156802968Y-68030476D01*
X156802978Y-68030484D01*
X157057504Y-68215408D01*
X157057509Y-68215410D01*
X157057516Y-68215416D01*
X157333234Y-68366994D01*
X157333239Y-68366996D01*
X157333241Y-68366997D01*
X157333242Y-68366998D01*
X157625771Y-68482818D01*
X157625774Y-68482819D01*
X157930523Y-68561065D01*
X157930527Y-68561066D01*
X157996010Y-68569338D01*
X158242670Y-68600499D01*
X158242679Y-68600499D01*
X158242682Y-68600500D01*
X158242684Y-68600500D01*
X158557316Y-68600500D01*
X158557318Y-68600500D01*
X158557321Y-68600499D01*
X158557329Y-68600499D01*
X158761991Y-68574644D01*
X158869473Y-68561066D01*
X159174225Y-68482819D01*
X159174228Y-68482818D01*
X159466757Y-68366998D01*
X159466758Y-68366997D01*
X159466756Y-68366997D01*
X159466766Y-68366994D01*
X159742484Y-68215416D01*
X159997030Y-68030478D01*
X160226390Y-67815094D01*
X160426947Y-67572663D01*
X160595537Y-67307007D01*
X160729503Y-67022315D01*
X160826731Y-66723079D01*
X160885688Y-66414015D01*
X160885689Y-66414004D01*
X160905444Y-66100005D01*
X160905444Y-66099994D01*
X160885689Y-65785995D01*
X160885688Y-65785988D01*
X160885688Y-65785985D01*
X160826731Y-65476921D01*
X160729503Y-65177685D01*
X160595537Y-64892993D01*
X160452954Y-64668317D01*
X160426948Y-64627338D01*
X160426945Y-64627334D01*
X160226393Y-64384909D01*
X160226391Y-64384907D01*
X159997031Y-64169523D01*
X159997021Y-64169515D01*
X159742495Y-63984591D01*
X159742488Y-63984586D01*
X159742484Y-63984584D01*
X159466766Y-63833006D01*
X159466763Y-63833004D01*
X159466758Y-63833002D01*
X159466757Y-63833001D01*
X159174228Y-63717181D01*
X159174225Y-63717180D01*
X158869476Y-63638934D01*
X158869463Y-63638932D01*
X158557329Y-63599500D01*
X158557318Y-63599500D01*
X158242682Y-63599500D01*
X158242670Y-63599500D01*
X157930536Y-63638932D01*
X157930523Y-63638934D01*
X157625774Y-63717180D01*
X157625771Y-63717181D01*
X157333242Y-63833001D01*
X157333241Y-63833002D01*
X157057516Y-63984584D01*
X157057504Y-63984591D01*
X156802978Y-64169515D01*
X156802968Y-64169523D01*
X156573608Y-64384907D01*
X156573606Y-64384909D01*
X156373054Y-64627334D01*
X156373051Y-64627338D01*
X156204464Y-64892990D01*
X156204461Y-64892996D01*
X156070499Y-65177678D01*
X156070497Y-65177683D01*
X155973270Y-65476916D01*
X155914311Y-65785988D01*
X155914310Y-65785995D01*
X155894556Y-66099994D01*
X155894556Y-66100005D01*
X143414926Y-66100005D01*
X136517567Y-59202647D01*
X136515374Y-59200398D01*
X136455061Y-59136949D01*
X136455060Y-59136948D01*
X136455059Y-59136947D01*
X136406640Y-59103246D01*
X136399120Y-59097575D01*
X136353413Y-59060305D01*
X136353406Y-59060301D01*
X136326441Y-59046216D01*
X136313026Y-59038089D01*
X136288049Y-59020705D01*
X136288046Y-59020703D01*
X136288045Y-59020703D01*
X136288041Y-59020701D01*
X136233845Y-58997443D01*
X136225336Y-58993402D01*
X136173057Y-58966094D01*
X136173046Y-58966090D01*
X136143806Y-58957723D01*
X136129021Y-58952459D01*
X136101058Y-58940459D01*
X136043273Y-58928583D01*
X136034127Y-58926338D01*
X135977423Y-58910113D01*
X135953699Y-58908306D01*
X135947072Y-58907801D01*
X135931533Y-58905622D01*
X135901742Y-58899500D01*
X135901741Y-58899500D01*
X135842759Y-58899500D01*
X135833344Y-58899142D01*
X135830643Y-58898936D01*
X135774524Y-58894662D01*
X135744349Y-58898506D01*
X135728682Y-58899500D01*
X119394278Y-58899500D01*
X119391138Y-58899460D01*
X119353485Y-58898506D01*
X119303637Y-58897243D01*
X119303636Y-58897243D01*
X119303627Y-58897243D01*
X119245572Y-58907649D01*
X119236243Y-58908958D01*
X119177562Y-58914925D01*
X119148532Y-58924033D01*
X119133294Y-58927773D01*
X119103349Y-58933140D01*
X119103347Y-58933141D01*
X119048554Y-58955026D01*
X119039685Y-58958183D01*
X118983417Y-58975838D01*
X118983406Y-58975843D01*
X118956814Y-58990602D01*
X118942645Y-58997332D01*
X118914380Y-59008623D01*
X118914373Y-59008627D01*
X118865122Y-59041086D01*
X118857066Y-59045967D01*
X118805502Y-59074588D01*
X118805499Y-59074590D01*
X118782405Y-59094414D01*
X118769883Y-59103855D01*
X118744482Y-59120598D01*
X118744475Y-59120603D01*
X118702781Y-59162297D01*
X118695874Y-59168698D01*
X118651106Y-59207132D01*
X118651105Y-59207133D01*
X118632480Y-59231194D01*
X118622107Y-59242971D01*
X116011899Y-61853181D01*
X115950576Y-61886666D01*
X115924218Y-61889500D01*
X114755783Y-61889500D01*
X114688744Y-61869815D01*
X114668102Y-61853181D01*
X111299567Y-58484647D01*
X111297374Y-58482398D01*
X111237061Y-58418949D01*
X111237060Y-58418948D01*
X111237059Y-58418947D01*
X111188640Y-58385246D01*
X111181120Y-58379575D01*
X111135413Y-58342305D01*
X111135406Y-58342301D01*
X111108441Y-58328216D01*
X111095026Y-58320089D01*
X111070049Y-58302705D01*
X111070046Y-58302703D01*
X111070045Y-58302703D01*
X111070041Y-58302701D01*
X111015845Y-58279443D01*
X111007336Y-58275402D01*
X110955057Y-58248094D01*
X110955046Y-58248090D01*
X110925806Y-58239723D01*
X110911021Y-58234459D01*
X110883058Y-58222459D01*
X110825273Y-58210583D01*
X110816127Y-58208338D01*
X110759423Y-58192113D01*
X110735699Y-58190306D01*
X110729072Y-58189801D01*
X110713533Y-58187622D01*
X110683742Y-58181500D01*
X110683741Y-58181500D01*
X110624759Y-58181500D01*
X110615344Y-58181142D01*
X110612643Y-58180936D01*
X110556524Y-58176662D01*
X110526349Y-58180506D01*
X110510682Y-58181500D01*
X104001588Y-58181500D01*
X103934549Y-58161815D01*
X103930465Y-58159075D01*
X103776734Y-58051432D01*
X103776732Y-58051431D01*
X103570497Y-57955261D01*
X103570488Y-57955258D01*
X103350697Y-57896366D01*
X103350693Y-57896365D01*
X103350692Y-57896365D01*
X103350691Y-57896364D01*
X103350686Y-57896364D01*
X103124002Y-57876532D01*
X103123998Y-57876532D01*
X102897313Y-57896364D01*
X102897302Y-57896366D01*
X102677511Y-57955258D01*
X102677502Y-57955261D01*
X102471267Y-58051431D01*
X102471265Y-58051432D01*
X102317535Y-58159075D01*
X102251329Y-58181402D01*
X102246412Y-58181500D01*
X96635588Y-58181500D01*
X96568549Y-58161815D01*
X96564465Y-58159075D01*
X96410734Y-58051432D01*
X96410732Y-58051431D01*
X96204497Y-57955261D01*
X96204488Y-57955258D01*
X95984697Y-57896366D01*
X95984693Y-57896365D01*
X95984692Y-57896365D01*
X95984691Y-57896364D01*
X95984686Y-57896364D01*
X95758002Y-57876532D01*
X95757998Y-57876532D01*
X95531313Y-57896364D01*
X95531302Y-57896366D01*
X95311511Y-57955258D01*
X95311502Y-57955261D01*
X95105267Y-58051431D01*
X95105265Y-58051432D01*
X94951535Y-58159075D01*
X94885329Y-58181402D01*
X94880412Y-58181500D01*
X89777588Y-58181500D01*
X89710549Y-58161815D01*
X89706465Y-58159075D01*
X89552734Y-58051432D01*
X89552732Y-58051431D01*
X89346497Y-57955261D01*
X89346488Y-57955258D01*
X89126697Y-57896366D01*
X89126693Y-57896365D01*
X89126692Y-57896365D01*
X89126691Y-57896364D01*
X89126686Y-57896364D01*
X88900002Y-57876532D01*
X88899998Y-57876532D01*
X88673313Y-57896364D01*
X88673302Y-57896366D01*
X88453511Y-57955258D01*
X88453502Y-57955261D01*
X88247267Y-58051431D01*
X88247265Y-58051432D01*
X88060858Y-58181954D01*
X87899954Y-58342858D01*
X87769432Y-58529265D01*
X87769431Y-58529267D01*
X87673261Y-58735502D01*
X87673258Y-58735511D01*
X87614366Y-58955302D01*
X87614364Y-58955311D01*
X87608959Y-59017094D01*
X87583506Y-59082162D01*
X87573112Y-59093966D01*
X84076899Y-62590181D01*
X84015576Y-62623666D01*
X83989218Y-62626500D01*
X83142782Y-62626500D01*
X83075743Y-62606815D01*
X83055101Y-62590181D01*
X78989567Y-58524647D01*
X78987374Y-58522398D01*
X78927061Y-58458949D01*
X78927060Y-58458948D01*
X78927059Y-58458947D01*
X78878640Y-58425246D01*
X78871120Y-58419575D01*
X78825413Y-58382305D01*
X78825406Y-58382301D01*
X78798441Y-58368216D01*
X78785026Y-58360089D01*
X78760049Y-58342705D01*
X78760046Y-58342703D01*
X78760045Y-58342703D01*
X78760041Y-58342701D01*
X78705845Y-58319443D01*
X78697336Y-58315402D01*
X78645057Y-58288094D01*
X78645046Y-58288090D01*
X78615806Y-58279723D01*
X78601021Y-58274459D01*
X78573058Y-58262459D01*
X78515273Y-58250583D01*
X78506127Y-58248338D01*
X78449423Y-58232113D01*
X78425699Y-58230306D01*
X78419072Y-58229801D01*
X78403533Y-58227622D01*
X78373742Y-58221500D01*
X78373741Y-58221500D01*
X78314759Y-58221500D01*
X78305344Y-58221142D01*
X78302643Y-58220936D01*
X78246524Y-58216662D01*
X78216349Y-58220506D01*
X78200682Y-58221500D01*
X74283588Y-58221500D01*
X74216549Y-58201815D01*
X74212465Y-58199075D01*
X74202522Y-58192113D01*
X74058734Y-58091432D01*
X74058732Y-58091431D01*
X73852497Y-57995261D01*
X73852488Y-57995258D01*
X73632697Y-57936366D01*
X73632693Y-57936365D01*
X73632692Y-57936365D01*
X73632691Y-57936364D01*
X73632686Y-57936364D01*
X73406002Y-57916532D01*
X73405998Y-57916532D01*
X73179313Y-57936364D01*
X73179302Y-57936366D01*
X72959511Y-57995258D01*
X72959502Y-57995261D01*
X72753267Y-58091431D01*
X72753265Y-58091432D01*
X72656661Y-58159075D01*
X72609478Y-58192113D01*
X72599535Y-58199075D01*
X72533329Y-58221402D01*
X72528412Y-58221500D01*
X68554278Y-58221500D01*
X68551138Y-58221460D01*
X68463637Y-58219243D01*
X68463628Y-58219243D01*
X68405579Y-58229648D01*
X68396252Y-58230956D01*
X68337564Y-58236925D01*
X68337554Y-58236927D01*
X68308528Y-58246034D01*
X68293288Y-58249775D01*
X68263350Y-58255141D01*
X68208570Y-58277021D01*
X68199702Y-58280178D01*
X68143414Y-58297840D01*
X68143413Y-58297840D01*
X68116818Y-58312601D01*
X68102648Y-58319330D01*
X68074384Y-58330621D01*
X68025121Y-58363087D01*
X68017066Y-58367967D01*
X67965502Y-58396588D01*
X67965499Y-58396590D01*
X67942405Y-58416414D01*
X67929883Y-58425855D01*
X67904482Y-58442598D01*
X67904475Y-58442603D01*
X67862781Y-58484297D01*
X67855874Y-58490698D01*
X67811106Y-58529132D01*
X67811105Y-58529133D01*
X67792480Y-58553194D01*
X67782107Y-58564971D01*
X42389897Y-83957181D01*
X42328574Y-83990666D01*
X42302216Y-83993500D01*
X41266129Y-83993500D01*
X41266123Y-83993501D01*
X41206516Y-83999908D01*
X41071671Y-84050202D01*
X41071664Y-84050206D01*
X40956455Y-84136452D01*
X40956452Y-84136455D01*
X40870206Y-84251664D01*
X40870202Y-84251671D01*
X40819908Y-84386517D01*
X40813501Y-84446116D01*
X40813500Y-84446135D01*
X40813500Y-86241870D01*
X40813501Y-86241876D01*
X40819908Y-86301483D01*
X40870202Y-86436328D01*
X40870206Y-86436335D01*
X40956452Y-86551544D01*
X40956455Y-86551547D01*
X41071664Y-86637793D01*
X41071671Y-86637797D01*
X41071674Y-86637798D01*
X41203598Y-86687002D01*
X41259531Y-86728873D01*
X41283949Y-86794337D01*
X41269098Y-86862610D01*
X41247947Y-86890865D01*
X41125886Y-87012926D01*
X40990400Y-87206420D01*
X40990399Y-87206422D01*
X40890570Y-87420507D01*
X40890567Y-87420513D01*
X40833364Y-87633999D01*
X40833364Y-87634000D01*
X41730314Y-87634000D01*
X41704507Y-87674156D01*
X41664000Y-87812111D01*
X41664000Y-87955889D01*
X41704507Y-88093844D01*
X41730314Y-88134000D01*
X40833364Y-88134000D01*
X40890567Y-88347486D01*
X40890570Y-88347492D01*
X40990399Y-88561578D01*
X41125894Y-88755082D01*
X41292917Y-88922105D01*
X41478595Y-89052119D01*
X41522219Y-89106696D01*
X41529412Y-89176195D01*
X41497890Y-89238549D01*
X41478595Y-89255269D01*
X41292594Y-89385508D01*
X41125505Y-89552597D01*
X40989965Y-89746169D01*
X40989964Y-89746171D01*
X40890098Y-89960335D01*
X40890094Y-89960344D01*
X40828938Y-90188586D01*
X40828936Y-90188596D01*
X40808341Y-90423999D01*
X40808341Y-90424000D01*
X36558028Y-90424000D01*
X36447672Y-67440870D01*
X40813500Y-67440870D01*
X40813501Y-67440876D01*
X40819908Y-67500483D01*
X40870202Y-67635328D01*
X40870206Y-67635335D01*
X40956452Y-67750544D01*
X40956455Y-67750547D01*
X41071664Y-67836793D01*
X41071671Y-67836797D01*
X41071674Y-67836798D01*
X41203598Y-67886002D01*
X41259531Y-67927873D01*
X41283949Y-67993337D01*
X41269098Y-68061610D01*
X41247947Y-68089865D01*
X41125886Y-68211926D01*
X40990400Y-68405420D01*
X40990399Y-68405422D01*
X40890570Y-68619507D01*
X40890567Y-68619513D01*
X40833364Y-68832999D01*
X40833364Y-68833000D01*
X41730314Y-68833000D01*
X41704507Y-68873156D01*
X41664000Y-69011111D01*
X41664000Y-69154889D01*
X41704507Y-69292844D01*
X41730314Y-69333000D01*
X40833364Y-69333000D01*
X40890567Y-69546486D01*
X40890570Y-69546492D01*
X40990399Y-69760578D01*
X41125894Y-69954082D01*
X41292917Y-70121105D01*
X41486421Y-70256600D01*
X41700507Y-70356429D01*
X41700516Y-70356433D01*
X41914000Y-70413634D01*
X41914000Y-69518501D01*
X42021685Y-69567680D01*
X42128237Y-69583000D01*
X42199763Y-69583000D01*
X42306315Y-69567680D01*
X42414000Y-69518501D01*
X42414000Y-70413633D01*
X42627483Y-70356433D01*
X42627492Y-70356429D01*
X42841578Y-70256600D01*
X43035082Y-70121105D01*
X43202105Y-69954082D01*
X43337600Y-69760578D01*
X43437429Y-69546492D01*
X43437432Y-69546486D01*
X43494636Y-69333000D01*
X42597686Y-69333000D01*
X42623493Y-69292844D01*
X42664000Y-69154889D01*
X42664000Y-69011111D01*
X42623493Y-68873156D01*
X42597686Y-68833000D01*
X43494636Y-68833000D01*
X43494635Y-68832999D01*
X43437432Y-68619513D01*
X43437429Y-68619507D01*
X43337600Y-68405422D01*
X43337599Y-68405420D01*
X43202113Y-68211926D01*
X43202108Y-68211920D01*
X43080053Y-68089865D01*
X43046568Y-68028542D01*
X43051552Y-67958850D01*
X43093424Y-67902917D01*
X43124400Y-67886002D01*
X43256331Y-67836796D01*
X43371546Y-67750546D01*
X43457796Y-67635331D01*
X43508091Y-67500483D01*
X43514500Y-67440873D01*
X43514500Y-67417500D01*
X43534185Y-67350461D01*
X43586989Y-67304706D01*
X43638500Y-67293500D01*
X55511836Y-67293500D01*
X55578875Y-67313185D01*
X55613411Y-67346377D01*
X55641954Y-67387141D01*
X55802858Y-67548045D01*
X55802861Y-67548047D01*
X55989266Y-67678568D01*
X56195504Y-67774739D01*
X56415308Y-67833635D01*
X56577230Y-67847801D01*
X56641998Y-67853468D01*
X56642000Y-67853468D01*
X56642002Y-67853468D01*
X56698673Y-67848509D01*
X56868692Y-67833635D01*
X57088496Y-67774739D01*
X57294734Y-67678568D01*
X57481139Y-67548047D01*
X57642047Y-67387139D01*
X57772568Y-67200734D01*
X57868739Y-66994496D01*
X57927635Y-66774692D01*
X57947468Y-66548000D01*
X57927635Y-66321308D01*
X57868739Y-66101504D01*
X57772568Y-65895266D01*
X57642047Y-65708861D01*
X57642045Y-65708858D01*
X57481141Y-65547954D01*
X57294734Y-65417432D01*
X57294732Y-65417431D01*
X57088497Y-65321261D01*
X57088488Y-65321258D01*
X56868697Y-65262366D01*
X56868693Y-65262365D01*
X56868692Y-65262365D01*
X56868691Y-65262364D01*
X56868686Y-65262364D01*
X56642002Y-65242532D01*
X56641998Y-65242532D01*
X56415313Y-65262364D01*
X56415302Y-65262366D01*
X56195511Y-65321258D01*
X56195502Y-65321261D01*
X55989267Y-65417431D01*
X55989265Y-65417432D01*
X55802858Y-65547954D01*
X55641954Y-65708858D01*
X55620413Y-65739623D01*
X55565836Y-65783248D01*
X55518838Y-65792500D01*
X43638499Y-65792500D01*
X43571460Y-65772815D01*
X43525705Y-65720011D01*
X43514499Y-65668500D01*
X43514499Y-65645129D01*
X43514498Y-65645123D01*
X43514497Y-65645116D01*
X43508091Y-65585517D01*
X43467587Y-65476921D01*
X43457797Y-65450671D01*
X43457793Y-65450664D01*
X43371547Y-65335455D01*
X43371544Y-65335452D01*
X43256335Y-65249206D01*
X43256328Y-65249202D01*
X43121482Y-65198908D01*
X43121483Y-65198908D01*
X43061883Y-65192501D01*
X43061881Y-65192500D01*
X43061873Y-65192500D01*
X43061864Y-65192500D01*
X41266129Y-65192500D01*
X41266123Y-65192501D01*
X41206516Y-65198908D01*
X41071671Y-65249202D01*
X41071664Y-65249206D01*
X40956455Y-65335452D01*
X40956452Y-65335455D01*
X40870206Y-65450664D01*
X40870202Y-65450671D01*
X40819908Y-65585517D01*
X40813501Y-65645116D01*
X40813501Y-65645123D01*
X40813500Y-65645135D01*
X40813500Y-67440870D01*
X36447672Y-67440870D01*
X36391418Y-55725093D01*
X36410781Y-55657962D01*
X36463365Y-55611954D01*
X36515417Y-55600500D01*
X36571448Y-55600500D01*
X36785428Y-55585196D01*
X37065046Y-55524369D01*
X37333161Y-55424367D01*
X37584315Y-55287226D01*
X37813395Y-55115739D01*
X38015739Y-54913395D01*
X38187226Y-54684315D01*
X38324367Y-54433161D01*
X38424369Y-54165046D01*
X38485196Y-53885428D01*
X38505610Y-53600000D01*
X38485196Y-53314572D01*
X38424369Y-53034954D01*
X38324367Y-52766839D01*
X38324365Y-52766836D01*
X38324364Y-52766832D01*
X38288556Y-52701255D01*
X38273704Y-52632982D01*
X38298121Y-52567518D01*
X38354054Y-52525646D01*
X38397618Y-52517828D01*
X168476616Y-52764190D01*
G37*
%TD.AperFunction*%
%TD*%
M02*
