M48
; DRILL file {KiCad 7.0.10} date Tue Apr  2 19:17:54 2024
; FORMAT={-:-/ absolute / metric / decimal}
; #@! TF.CreationDate,2024-04-02T19:17:54+05:30
; #@! TF.GenerationSoftware,Kicad,Pcbnew,7.0.10
; #@! TF.FileFunction,Plated,1,2,PTH
FMAT,2
METRIC
; #@! TA.AperFunction,Plated,PTH,ComponentDrill
T1C0.800
; #@! TA.AperFunction,Plated,PTH,ComponentDrill
T2C1.000
; #@! TA.AperFunction,Plated,PTH,ComponentDrill
T3C1.200
; #@! TA.AperFunction,Plated,PTH,ComponentDrill
T4C1.340
; #@! TA.AperFunction,Plated,PTH,ComponentDrill
T5C1.620
; #@! TA.AperFunction,Plated,PTH,ComponentDrill
T6C2.500
%
G90
G05
T1
X49.276Y-113.284
X49.276Y-122.174
X49.53Y-90.464
X49.53Y-95.464
X56.642Y-66.548
X56.642Y-79.248
X56.642Y-84.074
X56.642Y-96.774
X58.674Y-102.362
X61.976Y-113.284
X61.976Y-122.174
X65.024Y-68.834
X65.024Y-81.534
X67.564Y-109.474
X67.564Y-122.174
X71.374Y-102.362
X72.39Y-82.804
X72.39Y-85.344
X72.39Y-87.884
X72.39Y-90.424
X73.406Y-59.222
X73.406Y-64.222
X73.406Y-109.474
X73.426Y-75.438
X75.926Y-75.438
X75.946Y-109.474
X75.946Y-119.634
X78.486Y-109.474
X78.486Y-119.634
X80.01Y-82.804
X80.01Y-85.344
X80.01Y-87.884
X80.01Y-90.424
X81.026Y-119.634
X83.82Y-98.806
X83.82Y-109.728
X86.106Y-87.884
X86.36Y-96.266
X86.36Y-101.346
X86.36Y-109.728
X88.9Y-59.182
X88.9Y-71.882
X88.9Y-109.728
X93.922Y-76.718
X93.922Y-79.258
X93.922Y-81.798
X94.488Y-96.266
X94.488Y-103.378
X95.758Y-59.182
X95.758Y-71.882
X98.806Y-87.884
X103.124Y-59.182
X103.124Y-71.882
X106.426Y-82.804
X106.426Y-87.884
X107.188Y-96.266
X107.188Y-103.378
X108.966Y-85.344
X113.538Y-85.344
X124.968Y-118.364
X126.238Y-85.344
X137.668Y-118.364
X148.474Y-88.392
X161.174Y-88.392
T2
X42.164Y-66.543
X42.164Y-69.083
X42.164Y-85.344
X42.164Y-87.884
X42.164Y-90.424
X157.734Y-123.444
X157.734Y-125.984
T3
X117.094Y-109.474
X117.221Y-96.012
X157.734Y-109.474
X157.861Y-96.012
T4
X70.866Y-128.524
X73.406Y-128.524
X75.946Y-128.524
X112.8Y-69.7
X115.34Y-69.7
X117.88Y-69.7
T5
X100.86Y-129.794
X106.31Y-129.794
X111.76Y-129.794
X140.2Y-69.7
X145.65Y-69.7
X151.1Y-69.7
T6
X93.588Y-133.604
X118.988Y-133.604
X133.0Y-66.1
X158.4Y-66.1
M30
